<?xml version="1.0"?>
<svg xmlns="http://www.w3.org/2000/svg" xmlns:xlink="http://www.w3.org/1999/xlink" version="1.1" width="320px" height="320px" viewBox="0 0 320 320"><rect x="0" y="0" width="320" height="320" fill="#ffffff" fill-opacity="1"/><path fill="#000000" fill-opacity="1" d="M11,11L74,11L74,20L11,20ZM92,11L110,11L110,20L92,20ZM119,11L128,11L128,20L119,20ZM173,11L182,11L182,20L173,20ZM218,11L236,11L236,20L218,20ZM245,11L308,11L308,20L245,20ZM11,20L20,20L20,29L11,29ZM65,20L74,20L74,29L65,29ZM83,20L92,20L92,29L83,29ZM110,20L119,20L119,29L110,29ZM128,20L164,20L164,29L128,29ZM173,20L182,20L182,29L173,29ZM218,20L227,20L227,29L218,29ZM245,20L254,20L254,29L245,29ZM299,20L308,20L308,29L299,29ZM11,29L20,29L20,38L11,38ZM29,29L56,29L56,38L29,38ZM65,29L74,29L74,38L65,38ZM83,29L128,29L128,38L83,38ZM137,29L155,29L155,38L137,38ZM164,29L173,29L173,38L164,38ZM182,29L200,29L200,38L182,38ZM209,29L218,29L218,38L209,38ZM245,29L254,29L254,38L245,38ZM263,29L290,29L290,38L263,38ZM299,29L308,29L308,38L299,38ZM11,38L20,38L20,47L11,47ZM29,38L56,38L56,47L29,47ZM65,38L74,38L74,47L65,47ZM92,38L119,38L119,47L92,47ZM146,38L155,38L155,47L146,47ZM182,38L209,38L209,47L182,47ZM218,38L236,38L236,47L218,47ZM245,38L254,38L254,47L245,47ZM263,38L290,38L290,47L263,47ZM299,38L308,38L308,47L299,47ZM11,47L20,47L20,56L11,56ZM29,47L56,47L56,56L29,56ZM65,47L74,47L74,56L65,56ZM83,47L92,47L92,56L83,56ZM128,47L146,47L146,56L128,56ZM155,47L164,47L164,56L155,56ZM182,47L200,47L200,56L182,56ZM209,47L227,47L227,56L209,56ZM245,47L254,47L254,56L245,56ZM263,47L290,47L290,56L263,56ZM299,47L308,47L308,56L299,56ZM11,56L20,56L20,65L11,65ZM65,56L74,56L74,65L65,65ZM83,56L101,56L101,65L83,65ZM146,56L200,56L200,65L146,65ZM209,56L227,56L227,65L209,65ZM245,56L254,56L254,65L245,65ZM299,56L308,56L308,65L299,65ZM11,65L74,65L74,74L11,74ZM83,65L92,65L92,74L83,74ZM101,65L110,65L110,74L101,74ZM119,65L128,65L128,74L119,74ZM137,65L146,65L146,74L137,74ZM155,65L164,65L164,74L155,74ZM173,65L182,65L182,74L173,74ZM191,65L200,65L200,74L191,74ZM209,65L218,65L218,74L209,74ZM227,65L236,65L236,74L227,74ZM245,65L308,65L308,74L245,74ZM83,74L101,74L101,83L83,83ZM119,74L128,74L128,83L119,83ZM137,74L146,74L146,83L137,83ZM164,74L173,74L173,83L164,83ZM182,74L209,74L209,83L182,83ZM227,74L236,74L236,83L227,83ZM11,83L29,83L29,92L11,92ZM38,83L47,83L47,92L38,92ZM65,83L83,83L83,92L65,92ZM101,83L119,83L119,92L101,92ZM128,83L146,83L146,92L128,92ZM155,83L182,83L182,92L155,92ZM191,83L200,83L200,92L191,92ZM218,83L236,83L236,92L218,92ZM245,83L272,83L272,92L245,92ZM281,83L299,83L299,92L281,92ZM20,92L38,92L38,101L20,101ZM47,92L56,92L56,101L47,101ZM74,92L92,92L92,101L74,101ZM101,92L137,92L137,101L101,101ZM155,92L182,92L182,101L155,101ZM200,92L209,92L209,101L200,101ZM218,92L236,92L236,101L218,101ZM263,92L272,92L272,101L263,101ZM290,92L299,92L299,101L290,101ZM29,101L38,101L38,110L29,110ZM65,101L74,101L74,110L65,110ZM92,101L110,101L110,110L92,110ZM119,101L128,101L128,110L119,110ZM146,101L155,101L155,110L146,110ZM173,101L191,101L191,110L173,110ZM200,101L254,101L254,110L200,110ZM263,101L272,101L272,110L263,110ZM299,101L308,101L308,110L299,110ZM11,110L20,110L20,119L11,119ZM29,110L47,110L47,119L29,119ZM110,110L128,110L128,119L110,119ZM137,110L146,110L146,119L137,119ZM155,110L173,110L173,119L155,119ZM227,110L236,110L236,119L227,119ZM254,110L263,110L263,119L254,119ZM272,110L281,110L281,119L272,119ZM38,119L56,119L56,128L38,128ZM65,119L92,119L92,128L65,128ZM119,119L128,119L128,128L119,128ZM137,119L146,119L146,128L137,128ZM164,119L182,119L182,128L164,128ZM191,119L200,119L200,128L191,128ZM209,119L218,119L218,128L209,128ZM227,119L236,119L236,128L227,128ZM245,119L254,119L254,128L245,128ZM263,119L308,119L308,128L263,128ZM29,128L65,128L65,137L29,137ZM74,128L128,128L128,137L74,137ZM137,128L173,128L173,137L137,137ZM191,128L209,128L209,137L191,137ZM236,128L245,128L245,137L236,137ZM263,128L281,128L281,137L263,137ZM290,128L299,128L299,137L290,137ZM29,137L47,137L47,146L29,146ZM56,137L110,137L110,146L56,146ZM119,137L173,137L173,146L119,146ZM200,137L209,137L209,146L200,146ZM227,137L236,137L236,146L227,146ZM254,137L263,137L263,146L254,146ZM11,146L29,146L29,155L11,155ZM38,146L65,146L65,155L38,155ZM74,146L92,146L92,155L74,155ZM119,146L137,146L137,155L119,155ZM146,146L164,146L164,155L146,155ZM191,146L200,146L200,155L191,155ZM218,146L227,146L227,155L218,155ZM245,146L263,146L263,155L245,155ZM272,146L308,146L308,155L272,155ZM11,155L20,155L20,164L11,164ZM29,155L47,155L47,164L29,164ZM65,155L74,155L74,164L65,164ZM92,155L101,155L101,164L92,164ZM128,155L137,155L137,164L128,164ZM182,155L218,155L218,164L182,164ZM227,155L245,155L245,164L227,164ZM299,155L308,155L308,164L299,164ZM29,164L38,164L38,173L29,173ZM47,164L65,164L65,173L47,173ZM83,164L110,164L110,173L83,173ZM119,164L137,164L137,173L119,173ZM146,164L155,164L155,173L146,173ZM173,164L191,164L191,173L173,173ZM200,164L263,164L263,173L200,173ZM290,164L308,164L308,173L290,173ZM20,173L29,173L29,182L20,182ZM47,173L56,173L56,182L47,182ZM65,173L83,173L83,182L65,182ZM101,173L110,173L110,182L101,182ZM128,173L137,173L137,182L128,182ZM155,173L173,173L173,182L155,182ZM191,173L209,173L209,182L191,182ZM245,173L263,173L263,182L245,182ZM290,173L308,173L308,182L290,182ZM11,182L20,182L20,191L11,191ZM38,182L65,182L65,191L38,191ZM74,182L92,182L92,191L74,191ZM119,182L128,182L128,191L119,191ZM137,182L146,182L146,191L137,191ZM155,182L173,182L173,191L155,191ZM182,182L200,182L200,191L182,191ZM209,182L218,182L218,191L209,191ZM245,182L281,182L281,191L245,191ZM47,191L56,191L56,200L47,200ZM65,191L74,191L74,200L65,200ZM83,191L146,191L146,200L83,200ZM155,191L173,191L173,200L155,200ZM191,191L209,191L209,200L191,200ZM218,191L236,191L236,200L218,200ZM254,191L299,191L299,200L254,200ZM29,200L47,200L47,209L29,209ZM110,200L146,200L146,209L110,209ZM164,200L182,200L182,209L164,209ZM200,200L209,200L209,209L200,209ZM218,200L227,200L227,209L218,209ZM236,200L245,200L245,209L236,209ZM263,200L281,200L281,209L263,209ZM11,209L29,209L29,218L11,218ZM65,209L92,209L92,218L65,218ZM101,209L110,209L110,218L101,218ZM119,209L128,209L128,218L119,218ZM137,209L173,209L173,218L137,218ZM182,209L191,209L191,218L182,218ZM200,209L209,209L209,218L200,218ZM236,209L254,209L254,218L236,218ZM263,209L281,209L281,218L263,218ZM290,209L299,209L299,218L290,218ZM20,218L47,218L47,227L20,227ZM56,218L65,218L65,227L56,227ZM110,218L146,218L146,227L110,227ZM173,218L182,218L182,227L173,227ZM209,218L227,218L227,227L209,227ZM254,218L263,218L263,227L254,227ZM290,218L308,218L308,227L290,227ZM11,227L20,227L20,236L11,236ZM38,227L56,227L56,236L38,236ZM65,227L83,227L83,236L65,236ZM137,227L146,227L146,236L137,236ZM164,227L182,227L182,236L164,236ZM200,227L218,227L218,236L200,236ZM227,227L272,227L272,236L227,236ZM290,227L308,227L308,236L290,236ZM83,236L92,236L92,245L83,245ZM101,236L128,236L128,245L101,245ZM146,236L155,236L155,245L146,245ZM164,236L182,236L182,245L164,245ZM200,236L236,236L236,245L200,245ZM263,236L281,236L281,245L263,245ZM11,245L74,245L74,254L11,254ZM83,245L101,245L101,254L83,254ZM110,245L128,245L128,254L110,254ZM137,245L146,245L146,254L137,254ZM155,245L164,245L164,254L155,254ZM200,245L218,245L218,254L200,254ZM227,245L236,245L236,254L227,254ZM245,245L254,245L254,254L245,254ZM263,245L272,245L272,254L263,254ZM290,245L299,245L299,254L290,254ZM11,254L20,254L20,263L11,263ZM65,254L74,254L74,263L65,263ZM101,254L110,254L110,263L101,263ZM119,254L146,254L146,263L119,263ZM155,254L182,254L182,263L155,263ZM191,254L209,254L209,263L191,263ZM218,254L236,254L236,263L218,263ZM263,254L281,254L281,263L263,263ZM290,254L308,254L308,263L290,263ZM11,263L20,263L20,272L11,272ZM29,263L56,263L56,272L29,272ZM65,263L74,263L74,272L65,272ZM101,263L110,263L110,272L101,272ZM119,263L128,263L128,272L119,272ZM137,263L146,263L146,272L137,272ZM155,263L191,263L191,272L155,272ZM218,263L272,263L272,272L218,272ZM281,263L299,263L299,272L281,272ZM11,272L20,272L20,281L11,281ZM29,272L56,272L56,281L29,281ZM65,272L74,272L74,281L65,281ZM83,272L110,272L110,281L83,281ZM128,272L137,272L137,281L128,281ZM155,272L164,272L164,281L155,281ZM173,272L182,272L182,281L173,281ZM191,272L209,272L209,281L191,281ZM218,272L254,272L254,281L218,281ZM299,272L308,272L308,281L299,281ZM11,281L20,281L20,290L11,290ZM29,281L56,281L56,290L29,290ZM65,281L74,281L74,290L65,290ZM92,281L137,281L137,290L92,290ZM155,281L173,281L173,290L155,290ZM200,281L209,281L209,290L200,290ZM227,281L236,281L236,290L227,290ZM254,281L281,281L281,290L254,290ZM299,281L308,281L308,290L299,290ZM11,290L20,290L20,299L11,299ZM65,290L74,290L74,299L65,299ZM83,290L92,290L92,299L83,299ZM101,290L110,290L110,299L101,299ZM119,290L128,290L128,299L119,299ZM164,290L173,290L173,299L164,299ZM182,290L218,290L218,299L182,299ZM272,290L281,290L281,299L272,299ZM290,290L308,290L308,299L290,299ZM11,299L74,299L74,308L11,308ZM83,299L119,299L119,308L83,308ZM128,299L137,299L137,308L128,308ZM164,299L182,299L182,308L164,308ZM218,299L254,299L254,308L218,308ZM263,299L281,299L281,308L263,308ZM290,299L299,299L299,308L290,308Z"/></svg>
