<?xml version="1.0"?>
<svg xmlns="http://www.w3.org/2000/svg" xmlns:xlink="http://www.w3.org/1999/xlink" version="1.1" width="320px" height="320px" viewBox="0 0 320 320"><rect x="0" y="0" width="320" height="320" fill="#ffffff" fill-opacity="1"/><path fill="#000000" fill-opacity="1" d="M11,11L74,11L74,20L11,20ZM83,11L101,11L101,20L83,20ZM146,11L164,11L164,20L146,20ZM173,11L191,11L191,20L173,20ZM200,11L236,11L236,20L200,20ZM245,11L308,11L308,20L245,20ZM11,20L20,20L20,29L11,29ZM65,20L74,20L74,29L65,29ZM128,20L137,20L137,29L128,29ZM182,20L191,20L191,29L182,29ZM200,20L227,20L227,29L200,29ZM245,20L254,20L254,29L245,29ZM299,20L308,20L308,29L299,29ZM11,29L20,29L20,38L11,38ZM29,29L56,29L56,38L29,38ZM65,29L74,29L74,38L65,38ZM83,29L92,29L92,38L83,38ZM110,29L155,29L155,38L110,38ZM209,29L236,29L236,38L209,38ZM245,29L254,29L254,38L245,38ZM263,29L290,29L290,38L263,38ZM299,29L308,29L308,38L299,38ZM11,38L20,38L20,47L11,47ZM29,38L56,38L56,47L29,47ZM65,38L74,38L74,47L65,47ZM83,38L101,38L101,47L83,47ZM110,38L119,38L119,47L110,47ZM137,38L164,38L164,47L137,47ZM173,38L182,38L182,47L173,47ZM191,38L209,38L209,47L191,47ZM245,38L254,38L254,47L245,47ZM263,38L290,38L290,47L263,47ZM299,38L308,38L308,47L299,47ZM11,47L20,47L20,56L11,56ZM29,47L56,47L56,56L29,56ZM65,47L74,47L74,56L65,56ZM83,47L119,47L119,56L83,56ZM155,47L173,47L173,56L155,56ZM209,47L218,47L218,56L209,56ZM227,47L236,47L236,56L227,56ZM245,47L254,47L254,56L245,56ZM263,47L290,47L290,56L263,56ZM299,47L308,47L308,56L299,56ZM11,56L20,56L20,65L11,65ZM65,56L74,56L74,65L65,65ZM92,56L101,56L101,65L92,65ZM119,56L128,56L128,65L119,65ZM137,56L146,56L146,65L137,65ZM155,56L164,56L164,65L155,65ZM173,56L191,56L191,65L173,65ZM200,56L209,56L209,65L200,65ZM218,56L227,56L227,65L218,65ZM245,56L254,56L254,65L245,65ZM299,56L308,56L308,65L299,65ZM11,65L74,65L74,74L11,74ZM83,65L92,65L92,74L83,74ZM101,65L110,65L110,74L101,74ZM119,65L128,65L128,74L119,74ZM137,65L146,65L146,74L137,74ZM155,65L164,65L164,74L155,74ZM173,65L182,65L182,74L173,74ZM191,65L200,65L200,74L191,74ZM209,65L218,65L218,74L209,74ZM227,65L236,65L236,74L227,74ZM245,65L308,65L308,74L245,74ZM92,74L101,74L101,83L92,83ZM110,74L119,74L119,83L110,83ZM128,74L164,74L164,83L128,83ZM182,74L191,74L191,83L182,83ZM209,74L218,74L218,83L209,83ZM227,74L236,74L236,83L227,83ZM11,83L47,83L47,92L11,92ZM65,83L74,83L74,92L65,92ZM83,83L92,83L92,92L83,92ZM128,83L146,83L146,92L128,92ZM155,83L164,83L164,92L155,92ZM182,83L200,83L200,92L182,92ZM236,83L245,83L245,92L236,92ZM263,83L290,83L290,92L263,92ZM299,83L308,83L308,92L299,92ZM29,92L65,92L65,101L29,101ZM83,92L101,92L101,101L83,101ZM146,92L155,92L155,101L146,101ZM182,92L209,92L209,101L182,101ZM236,92L245,92L245,101L236,101ZM263,92L290,92L290,101L263,101ZM11,101L38,101L38,110L11,110ZM65,101L83,101L83,110L65,110ZM128,101L137,101L137,110L128,110ZM146,101L155,101L155,110L146,110ZM173,101L182,101L182,110L173,110ZM191,101L218,101L218,110L191,110ZM245,101L254,101L254,110L245,110ZM263,101L308,101L308,110L263,110ZM11,110L29,110L29,119L11,119ZM47,110L56,110L56,119L47,119ZM83,110L92,110L92,119L83,119ZM110,110L137,110L137,119L110,119ZM146,110L155,110L155,119L146,119ZM164,110L173,110L173,119L164,119ZM191,110L218,110L218,119L191,119ZM227,110L236,110L236,119L227,119ZM245,110L254,110L254,119L245,119ZM263,110L281,110L281,119L263,119ZM299,110L308,110L308,119L299,119ZM20,119L38,119L38,128L20,128ZM65,119L83,119L83,128L65,128ZM92,119L101,119L101,128L92,128ZM110,119L119,119L119,128L110,128ZM137,119L173,119L173,128L137,128ZM191,119L209,119L209,128L191,128ZM227,119L236,119L236,128L227,128ZM254,119L263,119L263,128L254,128ZM272,119L299,119L299,128L272,128ZM29,128L38,128L38,137L29,137ZM47,128L56,128L56,137L47,137ZM83,128L119,128L119,137L83,137ZM146,128L155,128L155,137L146,137ZM164,128L173,128L173,137L164,137ZM191,128L200,128L200,137L191,137ZM209,128L218,128L218,137L209,137ZM245,128L263,128L263,137L245,137ZM272,128L281,128L281,137L272,137ZM290,128L308,128L308,137L290,137ZM11,137L20,137L20,146L11,146ZM29,137L38,137L38,146L29,146ZM47,137L74,137L74,146L47,146ZM119,137L128,137L128,146L119,146ZM137,137L146,137L146,146L137,146ZM155,137L191,137L191,146L155,146ZM200,137L209,137L209,146L200,146ZM218,137L227,137L227,146L218,146ZM236,137L245,137L245,146L236,146ZM254,137L263,137L263,146L254,146ZM272,137L299,137L299,146L272,146ZM11,146L20,146L20,155L11,155ZM74,146L101,146L101,155L74,155ZM119,146L128,146L128,155L119,155ZM155,146L164,146L164,155L155,155ZM182,146L200,146L200,155L182,155ZM227,146L263,146L263,155L227,155ZM299,146L308,146L308,155L299,155ZM20,155L38,155L38,164L20,164ZM47,155L74,155L74,164L47,164ZM110,155L119,155L119,164L110,164ZM155,155L182,155L182,164L155,164ZM200,155L254,155L254,164L200,164ZM272,155L308,155L308,164L272,164ZM11,164L20,164L20,173L11,173ZM47,164L56,164L56,173L47,173ZM74,164L83,164L83,173L74,173ZM92,164L101,164L101,173L92,173ZM119,164L137,164L137,173L119,173ZM146,164L164,164L164,173L146,173ZM263,164L272,164L272,173L263,173ZM290,164L299,164L299,173L290,173ZM11,173L47,173L47,182L11,182ZM56,173L83,173L83,182L56,182ZM110,173L128,173L128,182L110,182ZM146,173L173,173L173,182L146,182ZM191,173L200,173L200,182L191,182ZM209,173L227,173L227,182L209,182ZM263,173L272,173L272,182L263,182ZM290,173L299,173L299,182L290,182ZM11,182L20,182L20,191L11,191ZM29,182L38,182L38,191L29,191ZM56,182L65,182L65,191L56,191ZM74,182L83,182L83,191L74,191ZM119,182L128,182L128,191L119,191ZM137,182L146,182L146,191L137,191ZM155,182L173,182L173,191L155,191ZM182,182L191,182L191,191L182,191ZM200,182L209,182L209,191L200,191ZM272,182L281,182L281,191L272,191ZM299,182L308,182L308,191L299,191ZM11,191L20,191L20,200L11,200ZM65,191L74,191L74,200L65,200ZM92,191L137,191L137,200L92,200ZM155,191L164,191L164,200L155,200ZM173,191L209,191L209,200L173,200ZM236,191L245,191L245,200L236,200ZM254,191L272,191L272,200L254,200ZM11,200L20,200L20,209L11,209ZM29,200L38,200L38,209L29,209ZM101,200L110,200L110,209L101,209ZM119,200L137,200L137,209L119,209ZM146,200L155,200L155,209L146,209ZM182,200L191,200L191,209L182,209ZM200,200L209,200L209,209L200,209ZM218,200L236,200L236,209L218,209ZM263,200L272,200L272,209L263,209ZM281,200L290,200L290,209L281,209ZM299,200L308,200L308,209L299,209ZM29,209L56,209L56,218L29,218ZM65,209L83,209L83,218L65,218ZM92,209L101,209L101,218L92,218ZM110,209L137,209L137,218L110,218ZM173,209L182,209L182,218L173,218ZM200,209L209,209L209,218L200,218ZM218,209L236,209L236,218L218,218ZM245,209L254,209L254,218L245,218ZM263,209L272,209L272,218L263,218ZM281,209L299,209L299,218L281,218ZM20,218L38,218L38,227L20,227ZM47,218L56,218L56,227L47,227ZM101,218L110,218L110,227L101,227ZM146,218L164,218L164,227L146,227ZM173,218L182,218L182,227L173,227ZM191,218L209,218L209,227L191,227ZM218,218L227,218L227,227L218,227ZM245,218L254,218L254,227L245,227ZM263,218L272,218L272,227L263,227ZM299,218L308,218L308,227L299,227ZM11,227L20,227L20,236L11,236ZM38,227L56,227L56,236L38,236ZM65,227L74,227L74,236L65,236ZM101,227L110,227L110,236L101,236ZM119,227L128,227L128,236L119,236ZM137,227L182,227L182,236L137,236ZM191,227L200,227L200,236L191,236ZM227,227L272,227L272,236L227,236ZM83,236L92,236L92,245L83,245ZM101,236L128,236L128,245L101,245ZM137,236L173,236L173,245L137,245ZM218,236L236,236L236,245L218,245ZM263,236L281,236L281,245L263,245ZM299,236L308,236L308,245L299,245ZM11,245L74,245L74,254L11,254ZM92,245L101,245L101,254L92,254ZM110,245L119,245L119,254L110,254ZM128,245L137,245L137,254L128,254ZM164,245L191,245L191,254L164,254ZM200,245L236,245L236,254L200,254ZM245,245L254,245L254,254L245,254ZM263,245L290,245L290,254L263,254ZM11,254L20,254L20,263L11,263ZM65,254L74,254L74,263L65,263ZM101,254L119,254L119,263L101,263ZM137,254L146,254L146,263L137,263ZM155,254L164,254L164,263L155,263ZM182,254L209,254L209,263L182,263ZM227,254L236,254L236,263L227,263ZM263,254L272,254L272,263L263,263ZM281,254L290,254L290,263L281,263ZM299,254L308,254L308,263L299,263ZM11,263L20,263L20,272L11,272ZM29,263L56,263L56,272L29,272ZM65,263L74,263L74,272L65,272ZM92,263L110,263L110,272L92,272ZM119,263L128,263L128,272L119,272ZM137,263L146,263L146,272L137,272ZM155,263L164,263L164,272L155,272ZM173,263L182,263L182,272L173,272ZM227,263L281,263L281,272L227,272ZM11,272L20,272L20,281L11,281ZM29,272L56,272L56,281L29,281ZM65,272L74,272L74,281L65,281ZM83,272L92,272L92,281L83,281ZM101,272L110,272L110,281L101,281ZM137,272L146,272L146,281L137,281ZM182,272L200,272L200,281L182,281ZM209,272L245,272L245,281L209,281ZM254,272L272,272L272,281L254,281ZM11,281L20,281L20,290L11,290ZM29,281L56,281L56,290L29,290ZM65,281L74,281L74,290L65,290ZM83,281L101,281L101,290L83,290ZM128,281L155,281L155,290L128,290ZM164,281L173,281L173,290L164,290ZM182,281L191,281L191,290L182,290ZM200,281L209,281L209,290L200,290ZM227,281L245,281L245,290L227,290ZM272,281L281,281L281,290L272,290ZM11,290L20,290L20,299L11,299ZM65,290L74,290L74,299L65,299ZM83,290L119,290L119,299L83,299ZM128,290L164,290L164,299L128,299ZM200,290L209,290L209,299L200,299ZM218,290L236,290L236,299L218,299ZM245,290L281,290L281,299L245,299ZM290,290L299,290L299,299L290,299ZM11,299L74,299L74,308L11,308ZM83,299L92,299L92,308L83,308ZM101,299L110,299L110,308L101,308ZM128,299L146,299L146,308L128,308ZM182,299L191,299L191,308L182,308ZM200,299L227,299L227,308L200,308ZM245,299L254,299L254,308L245,308ZM263,299L272,299L272,308L263,308ZM281,299L290,299L290,308L281,308Z"/></svg>
