<?xml version="1.0"?>
<svg xmlns="http://www.w3.org/2000/svg" xmlns:xlink="http://www.w3.org/1999/xlink" version="1.1" width="320px" height="320px" viewBox="0 0 320 320"><rect x="0" y="0" width="320" height="320" fill="#ffffff" fill-opacity="1"/><path fill="#000000" fill-opacity="1" d="M11,11L74,11L74,20L11,20ZM92,11L101,11L101,20L92,20ZM137,11L155,11L155,20L137,20ZM173,11L191,11L191,20L173,20ZM200,11L236,11L236,20L200,20ZM245,11L308,11L308,20L245,20ZM11,20L20,20L20,29L11,29ZM65,20L74,20L74,29L65,29ZM83,20L101,20L101,29L83,29ZM110,20L146,20L146,29L110,29ZM182,20L191,20L191,29L182,29ZM209,20L218,20L218,29L209,29ZM227,20L236,20L236,29L227,29ZM245,20L254,20L254,29L245,29ZM299,20L308,20L308,29L299,29ZM11,29L20,29L20,38L11,38ZM29,29L56,29L56,38L29,38ZM65,29L74,29L74,38L65,38ZM92,29L119,29L119,38L92,38ZM155,29L182,29L182,38L155,38ZM200,29L209,29L209,38L200,38ZM218,29L227,29L227,38L218,38ZM245,29L254,29L254,38L245,38ZM263,29L290,29L290,38L263,38ZM299,29L308,29L308,38L299,38ZM11,38L20,38L20,47L11,47ZM29,38L56,38L56,47L29,47ZM65,38L74,38L74,47L65,47ZM83,38L101,38L101,47L83,47ZM110,38L119,38L119,47L110,47ZM137,38L155,38L155,47L137,47ZM200,38L209,38L209,47L200,47ZM245,38L254,38L254,47L245,47ZM263,38L290,38L290,47L263,47ZM299,38L308,38L308,47L299,47ZM11,47L20,47L20,56L11,56ZM29,47L56,47L56,56L29,56ZM65,47L74,47L74,56L65,56ZM101,47L110,47L110,56L101,56ZM119,47L128,47L128,56L119,56ZM137,47L146,47L146,56L137,56ZM155,47L164,47L164,56L155,56ZM191,47L227,47L227,56L191,56ZM245,47L254,47L254,56L245,56ZM263,47L290,47L290,56L263,56ZM299,47L308,47L308,56L299,56ZM11,56L20,56L20,65L11,65ZM65,56L74,56L74,65L65,65ZM83,56L92,56L92,65L83,65ZM101,56L110,56L110,65L101,65ZM128,56L173,56L173,65L128,65ZM209,56L236,56L236,65L209,65ZM245,56L254,56L254,65L245,65ZM299,56L308,56L308,65L299,65ZM11,65L74,65L74,74L11,74ZM83,65L92,65L92,74L83,74ZM101,65L110,65L110,74L101,74ZM119,65L128,65L128,74L119,74ZM137,65L146,65L146,74L137,74ZM155,65L164,65L164,74L155,74ZM173,65L182,65L182,74L173,74ZM191,65L200,65L200,74L191,74ZM209,65L218,65L218,74L209,74ZM227,65L236,65L236,74L227,74ZM245,65L308,65L308,74L245,74ZM119,74L128,74L128,83L119,83ZM137,74L146,74L146,83L137,83ZM155,74L164,74L164,83L155,83ZM173,74L227,74L227,83L173,83ZM11,83L56,83L56,92L11,92ZM65,83L110,83L110,92L65,92ZM119,83L155,83L155,92L119,92ZM191,83L218,83L218,92L191,92ZM227,83L245,83L245,92L227,92ZM254,83L263,83L263,92L254,92ZM272,83L281,83L281,92L272,92ZM290,83L299,83L299,92L290,92ZM11,92L38,92L38,101L11,101ZM74,92L83,92L83,101L74,101ZM92,92L101,92L101,101L92,101ZM137,92L146,92L146,101L137,101ZM182,92L191,92L191,101L182,101ZM200,92L209,92L209,101L200,101ZM236,92L245,92L245,101L236,101ZM263,92L290,92L290,101L263,101ZM11,101L20,101L20,110L11,110ZM38,101L83,101L83,110L38,110ZM92,101L101,101L101,110L92,110ZM110,101L137,101L137,110L110,110ZM146,101L173,101L173,110L146,110ZM191,101L200,101L200,110L191,110ZM209,101L236,101L236,110L209,110ZM254,101L272,101L272,110L254,110ZM290,101L299,101L299,110L290,110ZM20,110L47,110L47,119L20,119ZM83,110L119,110L119,119L83,119ZM155,110L164,110L164,119L155,119ZM182,110L200,110L200,119L182,119ZM236,110L263,110L263,119L236,119ZM272,110L308,110L308,119L272,119ZM11,119L29,119L29,128L11,128ZM38,119L47,119L47,128L38,128ZM56,119L74,119L74,128L56,128ZM83,119L101,119L101,128L83,128ZM110,119L128,119L128,128L110,128ZM146,119L182,119L182,128L146,128ZM191,119L209,119L209,128L191,128ZM227,119L236,119L236,128L227,128ZM254,119L263,119L263,128L254,128ZM272,119L299,119L299,128L272,128ZM11,128L29,128L29,137L11,137ZM56,128L65,128L65,137L56,137ZM83,128L110,128L110,137L83,137ZM119,128L128,128L128,137L119,137ZM146,128L164,128L164,137L146,137ZM200,128L245,128L245,137L200,137ZM281,128L299,128L299,137L281,137ZM20,137L29,137L29,146L20,146ZM65,137L92,137L92,146L65,146ZM119,137L128,137L128,146L119,146ZM137,137L155,137L155,146L137,146ZM164,137L173,137L173,146L164,146ZM209,137L236,137L236,146L209,146ZM263,137L281,137L281,146L263,146ZM38,146L47,146L47,155L38,155ZM119,146L128,146L128,155L119,155ZM137,146L146,146L146,155L137,155ZM155,146L164,146L164,155L155,155ZM182,146L200,146L200,155L182,155ZM227,146L263,146L263,155L227,155ZM299,146L308,146L308,155L299,155ZM11,155L20,155L20,164L11,164ZM29,155L83,155L83,164L29,164ZM92,155L101,155L101,164L92,164ZM119,155L137,155L137,164L119,164ZM146,155L155,155L155,164L146,164ZM164,155L182,155L182,164L164,164ZM191,155L200,155L200,164L191,164ZM209,155L218,155L218,164L209,164ZM227,155L245,155L245,164L227,164ZM254,155L263,155L263,164L254,164ZM290,155L299,155L299,164L290,164ZM11,164L29,164L29,173L11,173ZM38,164L47,164L47,173L38,173ZM137,164L164,164L164,173L137,173ZM182,164L191,164L191,173L182,173ZM200,164L218,164L218,173L200,173ZM227,164L236,164L236,173L227,173ZM245,164L263,164L263,173L245,173ZM281,164L290,164L290,173L281,173ZM11,173L20,173L20,182L11,182ZM38,173L56,173L56,182L38,182ZM65,173L101,173L101,182L65,182ZM119,173L173,173L173,182L119,182ZM191,173L200,173L200,182L191,182ZM209,173L227,173L227,182L209,182ZM263,173L272,173L272,182L263,182ZM290,173L299,173L299,182L290,182ZM11,182L20,182L20,191L11,191ZM29,182L65,182L65,191L29,191ZM83,182L119,182L119,191L83,191ZM155,182L164,182L164,191L155,191ZM173,182L200,182L200,191L173,191ZM218,182L236,182L236,191L218,191ZM245,182L263,182L263,191L245,191ZM281,182L290,182L290,191L281,191ZM11,191L20,191L20,200L11,200ZM29,191L47,191L47,200L29,200ZM56,191L74,191L74,200L56,200ZM83,191L92,191L92,200L83,200ZM128,191L137,191L137,200L128,200ZM146,191L155,191L155,200L146,200ZM173,191L182,191L182,200L173,200ZM209,191L218,191L218,200L209,200ZM227,191L236,191L236,200L227,200ZM281,191L299,191L299,200L281,200ZM11,200L29,200L29,209L11,209ZM38,200L47,200L47,209L38,209ZM56,200L65,200L65,209L56,209ZM83,200L101,200L101,209L83,209ZM137,200L146,200L146,209L137,209ZM155,200L164,200L164,209L155,209ZM191,200L209,200L209,209L191,209ZM218,200L236,200L236,209L218,209ZM263,200L272,200L272,209L263,209ZM281,200L290,200L290,209L281,209ZM299,200L308,200L308,209L299,209ZM11,209L20,209L20,218L11,218ZM38,209L74,209L74,218L38,218ZM83,209L101,209L101,218L83,218ZM119,209L146,209L146,218L119,218ZM164,209L173,209L173,218L164,218ZM254,209L281,209L281,218L254,218ZM290,209L299,209L299,218L290,218ZM11,218L20,218L20,227L11,227ZM29,218L38,218L38,227L29,227ZM47,218L65,218L65,227L47,227ZM74,218L119,218L119,227L74,227ZM128,218L137,218L137,227L128,227ZM155,218L164,218L164,227L155,227ZM173,218L200,218L200,227L173,227ZM209,218L263,218L263,227L209,227ZM281,218L290,218L290,227L281,227ZM11,227L20,227L20,236L11,236ZM47,227L56,227L56,236L47,236ZM65,227L74,227L74,236L65,236ZM83,227L92,227L92,236L83,236ZM101,227L110,227L110,236L101,236ZM119,227L128,227L128,236L119,236ZM146,227L173,227L173,236L146,236ZM191,227L200,227L200,236L191,236ZM227,227L272,227L272,236L227,236ZM290,227L299,227L299,236L290,236ZM83,236L101,236L101,245L83,245ZM146,236L155,236L155,245L146,245ZM200,236L209,236L209,245L200,245ZM227,236L236,236L236,245L227,245ZM263,236L272,236L272,245L263,245ZM281,236L290,236L290,245L281,245ZM11,245L74,245L74,254L11,254ZM83,245L101,245L101,254L83,254ZM110,245L146,245L146,254L110,254ZM164,245L173,245L173,254L164,254ZM218,245L236,245L236,254L218,254ZM245,245L254,245L254,254L245,254ZM263,245L281,245L281,254L263,254ZM290,245L299,245L299,254L290,254ZM11,254L20,254L20,263L11,263ZM65,254L74,254L74,263L65,263ZM110,254L119,254L119,263L110,263ZM146,254L164,254L164,263L146,263ZM173,254L209,254L209,263L173,263ZM227,254L236,254L236,263L227,263ZM263,254L272,254L272,263L263,263ZM281,254L290,254L290,263L281,263ZM299,254L308,254L308,263L299,263ZM11,263L20,263L20,272L11,272ZM29,263L56,263L56,272L29,272ZM65,263L74,263L74,272L65,272ZM83,263L101,263L101,272L83,272ZM137,263L155,263L155,272L137,272ZM191,263L209,263L209,272L191,272ZM218,263L272,263L272,272L218,272ZM281,263L290,263L290,272L281,272ZM299,263L308,263L308,272L299,272ZM11,272L20,272L20,281L11,281ZM29,272L56,272L56,281L29,281ZM65,272L74,272L74,281L65,281ZM83,272L110,272L110,281L83,281ZM137,272L155,272L155,281L137,281ZM182,272L191,272L191,281L182,281ZM200,272L209,272L209,281L200,281ZM218,272L227,272L227,281L218,281ZM281,272L299,272L299,281L281,281ZM11,281L20,281L20,290L11,290ZM29,281L56,281L56,290L29,290ZM65,281L74,281L74,290L65,290ZM83,281L92,281L92,290L83,290ZM101,281L110,281L110,290L101,290ZM128,281L155,281L155,290L128,290ZM164,281L182,281L182,290L164,290ZM191,281L200,281L200,290L191,290ZM209,281L218,281L218,290L209,290ZM227,281L236,281L236,290L227,290ZM245,281L254,281L254,290L245,290ZM272,281L281,281L281,290L272,290ZM11,290L20,290L20,299L11,299ZM65,290L74,290L74,299L65,299ZM83,290L101,290L101,299L83,299ZM110,290L119,290L119,299L110,299ZM164,290L173,290L173,299L164,299ZM182,290L209,290L209,299L182,299ZM227,290L236,290L236,299L227,299ZM263,290L272,290L272,299L263,299ZM281,290L308,290L308,299L281,299ZM11,299L74,299L74,308L11,308ZM83,299L101,299L101,308L83,308ZM119,299L128,299L128,308L119,308ZM137,299L155,299L155,308L137,308ZM164,299L182,299L182,308L164,308ZM200,299L218,299L218,308L200,308ZM227,299L263,299L263,308L227,308ZM290,299L299,299L299,308L290,308Z"/></svg>
