<?xml version="1.0"?>
<svg xmlns="http://www.w3.org/2000/svg" xmlns:xlink="http://www.w3.org/1999/xlink" version="1.1" width="320px" height="320px" viewBox="0 0 320 320"><rect x="0" y="0" width="320" height="320" fill="#ffffff" fill-opacity="1"/><path fill="#000000" fill-opacity="1" d="M11,11L74,11L74,20L11,20ZM83,11L119,11L119,20L83,20ZM128,11L137,11L137,20L128,20ZM146,11L182,11L182,20L146,20ZM191,11L209,11L209,20L191,20ZM227,11L236,11L236,20L227,20ZM245,11L308,11L308,20L245,20ZM11,20L20,20L20,29L11,29ZM65,20L74,20L74,29L65,29ZM110,20L128,20L128,29L110,29ZM146,20L155,20L155,29L146,29ZM191,20L218,20L218,29L191,29ZM227,20L236,20L236,29L227,29ZM245,20L254,20L254,29L245,29ZM299,20L308,20L308,29L299,29ZM11,29L20,29L20,38L11,38ZM29,29L56,29L56,38L29,38ZM65,29L74,29L74,38L65,38ZM92,29L101,29L101,38L92,38ZM110,29L119,29L119,38L110,38ZM128,29L137,29L137,38L128,38ZM164,29L191,29L191,38L164,38ZM200,29L227,29L227,38L200,38ZM245,29L254,29L254,38L245,38ZM263,29L290,29L290,38L263,38ZM299,29L308,29L308,38L299,38ZM11,38L20,38L20,47L11,47ZM29,38L56,38L56,47L29,47ZM65,38L74,38L74,47L65,47ZM101,38L119,38L119,47L101,47ZM155,38L164,38L164,47L155,47ZM209,38L218,38L218,47L209,47ZM245,38L254,38L254,47L245,47ZM263,38L290,38L290,47L263,47ZM299,38L308,38L308,47L299,47ZM11,47L20,47L20,56L11,56ZM29,47L56,47L56,56L29,56ZM65,47L74,47L74,56L65,56ZM101,47L128,47L128,56L101,56ZM155,47L173,47L173,56L155,56ZM182,47L218,47L218,56L182,56ZM245,47L254,47L254,56L245,56ZM263,47L290,47L290,56L263,56ZM299,47L308,47L308,56L299,56ZM11,56L20,56L20,65L11,65ZM65,56L74,56L74,65L65,65ZM92,56L101,56L101,65L92,65ZM110,56L119,56L119,65L110,65ZM128,56L146,56L146,65L128,65ZM191,56L209,56L209,65L191,65ZM227,56L236,56L236,65L227,65ZM245,56L254,56L254,65L245,65ZM299,56L308,56L308,65L299,65ZM11,65L74,65L74,74L11,74ZM83,65L92,65L92,74L83,74ZM101,65L110,65L110,74L101,74ZM119,65L128,65L128,74L119,74ZM137,65L146,65L146,74L137,74ZM155,65L164,65L164,74L155,74ZM173,65L182,65L182,74L173,74ZM191,65L200,65L200,74L191,74ZM209,65L218,65L218,74L209,74ZM227,65L236,65L236,74L227,74ZM245,65L308,65L308,74L245,74ZM83,74L101,74L101,83L83,83ZM119,74L137,74L137,83L119,83ZM146,74L164,74L164,83L146,83ZM173,74L182,74L182,83L173,83ZM209,74L227,74L227,83L209,83ZM11,83L29,83L29,92L11,92ZM38,83L56,83L56,92L38,92ZM65,83L74,83L74,92L65,92ZM92,83L101,83L101,92L92,92ZM119,83L128,83L128,92L119,92ZM137,83L164,83L164,92L137,92ZM182,83L209,83L209,92L182,92ZM227,83L236,83L236,92L227,92ZM245,83L254,83L254,92L245,92ZM299,83L308,83L308,92L299,92ZM11,92L29,92L29,101L11,101ZM38,92L47,92L47,101L38,101ZM56,92L65,92L65,101L56,101ZM74,92L92,92L92,101L74,101ZM101,92L110,92L110,101L101,101ZM146,92L164,92L164,101L146,101ZM191,92L200,92L200,101L191,101ZM209,92L218,92L218,101L209,101ZM236,92L263,92L263,101L236,101ZM272,92L290,92L290,101L272,101ZM299,92L308,92L308,101L299,101ZM11,101L38,101L38,110L11,110ZM65,101L83,101L83,110L65,110ZM92,101L101,101L101,110L92,110ZM119,101L164,101L164,110L119,110ZM191,101L200,101L200,110L191,110ZM209,101L218,101L218,110L209,110ZM227,101L236,101L236,110L227,110ZM245,101L281,101L281,110L245,110ZM290,101L308,101L308,110L290,110ZM20,110L65,110L65,119L20,119ZM146,110L155,110L155,119L146,119ZM164,110L173,110L173,119L164,119ZM182,110L227,110L227,119L182,119ZM236,110L254,110L254,119L236,119ZM263,110L272,110L272,119L263,119ZM281,110L308,110L308,119L281,119ZM11,119L38,119L38,128L11,128ZM65,119L83,119L83,128L65,128ZM92,119L110,119L110,128L92,128ZM119,119L155,119L155,128L119,128ZM173,119L272,119L272,128L173,128ZM281,119L290,119L290,128L281,128ZM299,119L308,119L308,128L299,128ZM29,128L38,128L38,137L29,137ZM74,128L110,128L110,137L74,137ZM119,128L146,128L146,137L119,137ZM155,128L164,128L164,137L155,137ZM182,128L191,128L191,137L182,137ZM209,128L236,128L236,137L209,137ZM245,128L263,128L263,137L245,137ZM281,128L290,128L290,137L281,137ZM299,128L308,128L308,137L299,137ZM11,137L29,137L29,146L11,146ZM38,137L56,137L56,146L38,146ZM65,137L92,137L92,146L65,146ZM101,137L110,137L110,146L101,146ZM119,137L173,137L173,146L119,146ZM182,137L191,137L191,146L182,146ZM218,137L245,137L245,146L218,146ZM272,137L281,137L281,146L272,146ZM290,137L299,137L299,146L290,146ZM29,146L38,146L38,155L29,155ZM47,146L65,146L65,155L47,155ZM74,146L101,146L101,155L74,155ZM119,146L128,146L128,155L119,155ZM146,146L155,146L155,155L146,155ZM182,146L191,146L191,155L182,155ZM200,146L218,146L218,155L200,155ZM227,146L245,146L245,155L227,155ZM263,146L272,146L272,155L263,155ZM11,155L20,155L20,164L11,164ZM29,155L47,155L47,164L29,164ZM65,155L74,155L74,164L65,164ZM101,155L155,155L155,164L101,164ZM173,155L182,155L182,164L173,164ZM209,155L236,155L236,164L209,164ZM254,155L263,155L263,164L254,164ZM272,155L281,155L281,164L272,164ZM290,155L308,155L308,164L290,164ZM20,164L29,164L29,173L20,173ZM56,164L65,164L65,173L56,173ZM74,164L92,164L92,173L74,173ZM110,164L119,164L119,173L110,173ZM137,164L146,164L146,173L137,173ZM164,164L173,164L173,173L164,173ZM182,164L191,164L191,173L182,173ZM218,164L236,164L236,173L218,173ZM263,164L290,164L290,173L263,173ZM20,173L38,173L38,182L20,182ZM56,173L74,173L74,182L56,182ZM110,173L128,173L128,182L110,182ZM146,173L155,173L155,182L146,182ZM182,173L191,173L191,182L182,182ZM236,173L254,173L254,182L236,182ZM272,173L281,173L281,182L272,182ZM299,173L308,173L308,182L299,182ZM20,182L47,182L47,191L20,191ZM56,182L65,182L65,191L56,191ZM74,182L119,182L119,191L74,191ZM128,182L164,182L164,191L128,191ZM173,182L182,182L182,191L173,191ZM200,182L209,182L209,191L200,191ZM218,182L245,182L245,191L218,191ZM281,182L308,182L308,191L281,191ZM11,191L20,191L20,200L11,200ZM47,191L74,191L74,200L47,200ZM92,191L101,191L101,200L92,200ZM146,191L164,191L164,200L146,200ZM173,191L200,191L200,200L173,200ZM227,191L245,191L245,200L227,200ZM263,191L272,191L272,200L263,200ZM281,191L290,191L290,200L281,200ZM11,200L20,200L20,209L11,209ZM29,200L47,200L47,209L29,209ZM83,200L110,200L110,209L83,209ZM146,200L155,200L155,209L146,209ZM191,200L200,200L200,209L191,209ZM209,200L218,200L218,209L209,209ZM245,200L263,200L263,209L245,209ZM281,200L290,200L290,209L281,209ZM11,209L20,209L20,218L11,218ZM29,209L38,209L38,218L29,218ZM56,209L83,209L83,218L56,218ZM92,209L101,209L101,218L92,218ZM110,209L137,209L137,218L110,218ZM191,209L200,209L200,218L191,218ZM218,209L227,209L227,218L218,218ZM245,209L272,209L272,218L245,218ZM290,209L308,209L308,218L290,218ZM11,218L20,218L20,227L11,227ZM29,218L65,218L65,227L29,227ZM74,218L83,218L83,227L74,227ZM128,218L137,218L137,227L128,227ZM146,218L155,218L155,227L146,227ZM164,218L209,218L209,227L164,227ZM227,218L254,218L254,227L227,227ZM263,218L290,218L290,227L263,227ZM11,227L29,227L29,236L11,236ZM65,227L83,227L83,236L65,236ZM92,227L155,227L155,236L92,236ZM182,227L200,227L200,236L182,236ZM209,227L281,227L281,236L209,236ZM299,227L308,227L308,236L299,236ZM83,236L92,236L92,245L83,245ZM101,236L110,236L110,245L101,245ZM128,236L146,236L146,245L128,245ZM182,236L191,236L191,245L182,245ZM227,236L236,236L236,245L227,245ZM263,236L272,236L272,245L263,245ZM281,236L308,236L308,245L281,245ZM11,245L74,245L74,254L11,254ZM101,245L128,245L128,254L101,254ZM137,245L146,245L146,254L137,254ZM155,245L173,245L173,254L155,254ZM182,245L191,245L191,254L182,254ZM209,245L236,245L236,254L209,254ZM245,245L254,245L254,254L245,254ZM263,245L281,245L281,254L263,254ZM11,254L20,254L20,263L11,263ZM65,254L74,254L74,263L65,263ZM110,254L119,254L119,263L110,263ZM137,254L146,254L146,263L137,263ZM173,254L191,254L191,263L173,263ZM209,254L218,254L218,263L209,263ZM227,254L236,254L236,263L227,263ZM263,254L272,254L272,263L263,263ZM281,254L290,254L290,263L281,263ZM11,263L20,263L20,272L11,272ZM29,263L56,263L56,272L29,272ZM65,263L74,263L74,272L65,272ZM83,263L92,263L92,272L83,272ZM110,263L119,263L119,272L110,272ZM146,263L155,263L155,272L146,272ZM164,263L173,263L173,272L164,272ZM191,263L209,263L209,272L191,272ZM227,263L290,263L290,272L227,272ZM11,272L20,272L20,281L11,281ZM29,272L56,272L56,281L29,281ZM65,272L74,272L74,281L65,281ZM83,272L101,272L101,281L83,281ZM110,272L119,272L119,281L110,281ZM137,272L146,272L146,281L137,281ZM155,272L173,272L173,281L155,281ZM191,272L200,272L200,281L191,281ZM209,272L218,272L218,281L209,281ZM254,272L299,272L299,281L254,281ZM11,281L20,281L20,290L11,290ZM29,281L56,281L56,290L29,290ZM65,281L74,281L74,290L65,290ZM101,281L119,281L119,290L101,290ZM146,281L164,281L164,290L146,290ZM173,281L200,281L200,290L173,290ZM218,281L236,281L236,290L218,290ZM245,281L254,281L254,290L245,290ZM263,281L272,281L272,290L263,290ZM290,281L308,281L308,290L290,290ZM11,290L20,290L20,299L11,299ZM65,290L74,290L74,299L65,299ZM83,290L92,290L92,299L83,299ZM101,290L119,290L119,299L101,299ZM128,290L155,290L155,299L128,299ZM164,290L173,290L173,299L164,299ZM209,290L227,290L227,299L209,299ZM236,290L272,290L272,299L236,299ZM281,290L290,290L290,299L281,299ZM11,299L74,299L74,308L11,308ZM83,299L92,299L92,308L83,308ZM101,299L110,299L110,308L101,308ZM119,299L200,299L200,308L119,308ZM209,299L236,299L236,308L209,308ZM245,299L272,299L272,308L245,308Z"/></svg>
