<?xml version="1.0"?>
<svg xmlns="http://www.w3.org/2000/svg" xmlns:xlink="http://www.w3.org/1999/xlink" version="1.1" width="320px" height="320px" viewBox="0 0 320 320"><rect x="0" y="0" width="320" height="320" fill="#ffffff" fill-opacity="1"/><path fill="#000000" fill-opacity="1" d="M10,10L94,10L94,22L10,22ZM106,10L154,10L154,22L106,22ZM166,10L178,10L178,22L166,22ZM190,10L202,10L202,22L190,22ZM226,10L310,10L310,22L226,22ZM10,22L22,22L22,34L10,34ZM82,22L94,22L94,34L82,34ZM142,22L190,22L190,34L142,34ZM202,22L214,22L214,34L202,34ZM226,22L238,22L238,34L226,34ZM298,22L310,22L310,34L298,34ZM10,34L22,34L22,46L10,46ZM34,34L70,34L70,46L34,46ZM82,34L94,34L94,46L82,46ZM118,34L130,34L130,46L118,46ZM142,34L154,34L154,46L142,46ZM166,34L178,34L178,46L166,46ZM202,34L214,34L214,46L202,46ZM226,34L238,34L238,46L226,46ZM250,34L286,34L286,46L250,46ZM298,34L310,34L310,46L298,46ZM10,46L22,46L22,58L10,58ZM34,46L70,46L70,58L34,58ZM82,46L94,46L94,58L82,58ZM130,46L154,46L154,58L130,58ZM178,46L190,46L190,58L178,58ZM202,46L214,46L214,58L202,58ZM226,46L238,46L238,58L226,58ZM250,46L286,46L286,58L250,58ZM298,46L310,46L310,58L298,58ZM10,58L22,58L22,70L10,70ZM34,58L70,58L70,70L34,70ZM82,58L94,58L94,70L82,70ZM130,58L214,58L214,70L130,70ZM226,58L238,58L238,70L226,70ZM250,58L286,58L286,70L250,70ZM298,58L310,58L310,70L298,70ZM10,70L22,70L22,82L10,82ZM82,70L94,70L94,82L82,82ZM118,70L130,70L130,82L118,82ZM142,70L154,70L154,82L142,82ZM166,70L190,70L190,82L166,82ZM226,70L238,70L238,82L226,82ZM298,70L310,70L310,82L298,82ZM10,82L94,82L94,94L10,94ZM106,82L118,82L118,94L106,94ZM130,82L142,82L142,94L130,94ZM154,82L166,82L166,94L154,94ZM178,82L190,82L190,94L178,94ZM202,82L214,82L214,94L202,94ZM226,82L310,82L310,94L226,94ZM106,94L130,94L130,106L106,106ZM154,94L166,94L166,106L154,106ZM178,94L202,94L202,106L178,106ZM10,106L34,106L34,118L10,118ZM46,106L70,106L70,118L46,118ZM82,106L94,106L94,118L82,118ZM118,106L130,106L130,118L118,118ZM154,106L214,106L214,118L154,118ZM226,106L238,106L238,118L226,118ZM298,106L310,106L310,118L298,118ZM58,118L82,118L82,130L58,130ZM94,118L106,118L106,130L94,130ZM130,118L142,118L142,130L130,130ZM178,118L190,118L190,130L178,130ZM202,118L310,118L310,130L202,130ZM34,130L130,130L130,142L34,142ZM154,130L166,130L166,142L154,142ZM178,130L202,130L202,142L178,142ZM226,130L238,130L238,142L226,142ZM262,130L298,130L298,142L262,142ZM10,142L22,142L22,154L10,154ZM46,142L58,142L58,154L46,154ZM70,142L82,142L82,154L70,154ZM178,142L214,142L214,154L178,154ZM238,142L250,142L250,154L238,154ZM262,142L274,142L274,154L262,154ZM286,142L310,142L310,154L286,154ZM22,154L46,154L46,166L22,166ZM82,154L94,154L94,166L82,166ZM106,154L142,154L142,166L106,166ZM166,154L214,154L214,166L166,166ZM226,154L238,154L238,166L226,166ZM250,154L274,154L274,166L250,166ZM298,154L310,154L310,166L298,166ZM10,166L22,166L22,178L10,178ZM46,166L82,166L82,178L46,178ZM94,166L106,166L106,178L94,178ZM130,166L142,166L142,178L130,178ZM154,166L166,166L166,178L154,178ZM190,166L202,166L202,178L190,178ZM214,166L226,166L226,178L214,178ZM238,166L250,166L250,178L238,178ZM262,166L274,166L274,178L262,178ZM298,166L310,166L310,178L298,178ZM10,178L58,178L58,190L10,190ZM82,178L106,178L106,190L82,190ZM178,178L190,178L190,190L178,190ZM226,178L262,178L262,190L226,190ZM298,178L310,178L310,190L298,190ZM10,190L22,190L22,202L10,202ZM58,190L70,190L70,202L58,202ZM106,190L130,190L130,202L106,202ZM154,190L214,190L214,202L154,202ZM238,190L310,190L310,202L238,202ZM10,202L22,202L22,214L10,214ZM34,202L46,202L46,214L34,214ZM58,202L70,202L70,214L58,214ZM82,202L94,202L94,214L82,214ZM118,202L166,202L166,214L118,214ZM190,202L274,202L274,214L190,214ZM286,202L310,202L310,214L286,214ZM106,214L130,214L130,226L106,226ZM142,214L154,214L154,226L142,226ZM202,214L214,214L214,226L202,226ZM250,214L310,214L310,226L250,226ZM10,226L94,226L94,238L10,238ZM130,226L142,226L142,238L130,238ZM154,226L214,226L214,238L154,238ZM226,226L238,226L238,238L226,238ZM250,226L274,226L274,238L250,238ZM298,226L310,226L310,238L298,238ZM10,238L22,238L22,250L10,250ZM82,238L94,238L94,250L82,250ZM142,238L154,238L154,250L142,250ZM166,238L178,238L178,250L166,250ZM190,238L214,238L214,250L190,250ZM250,238L274,238L274,250L250,250ZM10,250L22,250L22,262L10,262ZM34,250L70,250L70,262L34,262ZM82,250L94,250L94,262L82,262ZM106,250L130,250L130,262L106,262ZM142,250L154,250L154,262L142,262ZM166,250L178,250L178,262L166,262ZM190,250L262,250L262,262L190,262ZM274,250L286,250L286,262L274,262ZM10,262L22,262L22,274L10,274ZM34,262L70,262L70,274L34,274ZM82,262L94,262L94,274L82,274ZM106,262L118,262L118,274L106,274ZM130,262L142,262L142,274L130,274ZM154,262L178,262L178,274L154,274ZM202,262L214,262L214,274L202,274ZM226,262L238,262L238,274L226,274ZM262,262L310,262L310,274L262,274ZM10,274L22,274L22,286L10,286ZM34,274L70,274L70,286L34,286ZM82,274L94,274L94,286L82,286ZM118,274L154,274L154,286L118,286ZM166,274L178,274L178,286L166,286ZM214,274L262,274L262,286L214,286ZM274,274L310,274L310,286L274,286ZM10,286L22,286L22,298L10,298ZM82,286L94,286L94,298L82,298ZM106,286L118,286L118,298L106,298ZM142,286L178,286L178,298L142,298ZM190,286L214,286L214,298L190,298ZM226,286L262,286L262,298L226,298ZM274,286L286,286L286,298L274,298ZM10,298L94,298L94,310L10,310ZM106,298L118,298L118,310L106,310ZM130,298L178,298L178,310L130,310ZM190,298L202,298L202,310L190,310ZM214,298L238,298L238,310L214,310ZM250,298L274,298L274,310L250,310ZM298,298L310,298L310,310L298,310Z"/></svg>
