<?xml version="1.0"?>
<svg xmlns="http://www.w3.org/2000/svg" xmlns:xlink="http://www.w3.org/1999/xlink" version="1.1" width="320px" height="320px" viewBox="0 0 320 320"><rect x="0" y="0" width="320" height="320" fill="#ffffff" fill-opacity="1"/><path fill="#000000" fill-opacity="1" d="M11,11L74,11L74,20L11,20ZM101,11L110,11L110,20L101,20ZM119,11L128,11L128,20L119,20ZM146,11L155,11L155,20L146,20ZM182,11L191,11L191,20L182,20ZM200,11L236,11L236,20L200,20ZM245,11L308,11L308,20L245,20ZM11,20L20,20L20,29L11,29ZM65,20L74,20L74,29L65,29ZM83,20L92,20L92,29L83,29ZM101,20L110,20L110,29L101,29ZM137,20L155,20L155,29L137,29ZM164,20L173,20L173,29L164,29ZM191,20L200,20L200,29L191,29ZM209,20L218,20L218,29L209,29ZM227,20L236,20L236,29L227,29ZM245,20L254,20L254,29L245,29ZM299,20L308,20L308,29L299,29ZM11,29L20,29L20,38L11,38ZM29,29L56,29L56,38L29,38ZM65,29L74,29L74,38L65,38ZM119,29L128,29L128,38L119,38ZM137,29L146,29L146,38L137,38ZM182,29L209,29L209,38L182,38ZM218,29L227,29L227,38L218,38ZM245,29L254,29L254,38L245,38ZM263,29L290,29L290,38L263,38ZM299,29L308,29L308,38L299,38ZM11,38L20,38L20,47L11,47ZM29,38L56,38L56,47L29,47ZM65,38L74,38L74,47L65,47ZM83,38L110,38L110,47L83,47ZM119,38L137,38L137,47L119,47ZM146,38L182,38L182,47L146,47ZM191,38L209,38L209,47L191,47ZM245,38L254,38L254,47L245,47ZM263,38L290,38L290,47L263,47ZM299,38L308,38L308,47L299,47ZM11,47L20,47L20,56L11,56ZM29,47L56,47L56,56L29,56ZM65,47L74,47L74,56L65,56ZM92,47L101,47L101,56L92,56ZM137,47L146,47L146,56L137,56ZM155,47L164,47L164,56L155,56ZM191,47L227,47L227,56L191,56ZM245,47L254,47L254,56L245,56ZM263,47L290,47L290,56L263,56ZM299,47L308,47L308,56L299,56ZM11,56L20,56L20,65L11,65ZM65,56L74,56L74,65L65,65ZM83,56L101,56L101,65L83,65ZM110,56L173,56L173,65L110,65ZM209,56L236,56L236,65L209,65ZM245,56L254,56L254,65L245,65ZM299,56L308,56L308,65L299,65ZM11,65L74,65L74,74L11,74ZM83,65L92,65L92,74L83,74ZM101,65L110,65L110,74L101,74ZM119,65L128,65L128,74L119,74ZM137,65L146,65L146,74L137,74ZM155,65L164,65L164,74L155,74ZM173,65L182,65L182,74L173,74ZM191,65L200,65L200,74L191,74ZM209,65L218,65L218,74L209,74ZM227,65L236,65L236,74L227,74ZM245,65L308,65L308,74L245,74ZM92,74L119,74L119,83L92,83ZM155,74L164,74L164,83L155,83ZM173,74L227,74L227,83L173,83ZM11,83L56,83L56,92L11,92ZM65,83L101,83L101,92L65,92ZM110,83L119,83L119,92L110,92ZM128,83L137,83L137,92L128,92ZM146,83L164,83L164,92L146,92ZM173,83L182,83L182,92L173,92ZM191,83L218,83L218,92L191,92ZM227,83L245,83L245,92L227,92ZM254,83L263,83L263,92L254,92ZM272,83L281,83L281,92L272,92ZM290,83L299,83L299,92L290,92ZM11,92L29,92L29,101L11,101ZM56,92L65,92L65,101L56,101ZM74,92L83,92L83,101L74,101ZM101,92L110,92L110,101L101,101ZM119,92L128,92L128,101L119,101ZM137,92L164,92L164,101L137,101ZM191,92L209,92L209,101L191,101ZM236,92L245,92L245,101L236,101ZM263,92L290,92L290,101L263,101ZM11,101L20,101L20,110L11,110ZM47,101L74,101L74,110L47,110ZM83,101L92,101L92,110L83,110ZM101,101L110,101L110,110L101,110ZM128,101L155,101L155,110L128,110ZM164,101L173,101L173,110L164,110ZM182,101L191,101L191,110L182,110ZM209,101L236,101L236,110L209,110ZM254,101L272,101L272,110L254,110ZM290,101L299,101L299,110L290,110ZM20,110L29,110L29,119L20,119ZM119,110L137,110L137,119L119,119ZM155,110L164,110L164,119L155,119ZM173,110L182,110L182,119L173,119ZM191,110L200,110L200,119L191,119ZM236,110L263,110L263,119L236,119ZM272,110L308,110L308,119L272,119ZM29,119L47,119L47,128L29,128ZM56,119L74,119L74,128L56,128ZM92,119L110,119L110,128L92,128ZM119,119L128,119L128,128L119,128ZM146,119L173,119L173,128L146,128ZM200,119L209,119L209,128L200,128ZM227,119L236,119L236,128L227,128ZM272,119L299,119L299,128L272,128ZM11,128L47,128L47,137L11,137ZM56,128L65,128L65,137L56,137ZM83,128L101,128L101,137L83,137ZM146,128L155,128L155,137L146,137ZM182,128L191,128L191,137L182,137ZM200,128L245,128L245,137L200,137ZM281,128L299,128L299,137L281,137ZM20,137L29,137L29,146L20,146ZM38,137L56,137L56,146L38,146ZM65,137L74,137L74,146L65,146ZM83,137L101,137L101,146L83,146ZM110,137L146,137L146,146L110,146ZM164,137L173,137L173,146L164,146ZM182,137L191,137L191,146L182,146ZM209,137L236,137L236,146L209,146ZM263,137L281,137L281,146L263,146ZM11,146L29,146L29,155L11,155ZM47,146L56,146L56,155L47,155ZM83,146L92,146L92,155L83,155ZM101,146L119,146L119,155L101,155ZM155,146L164,146L164,155L155,155ZM173,146L182,146L182,155L173,155ZM227,146L263,146L263,155L227,155ZM299,146L308,146L308,155L299,155ZM20,155L47,155L47,164L20,164ZM65,155L83,155L83,164L65,164ZM92,155L119,155L119,164L92,164ZM137,155L155,155L155,164L137,164ZM191,155L200,155L200,164L191,164ZM209,155L218,155L218,164L209,164ZM227,155L236,155L236,164L227,164ZM254,155L263,155L263,164L254,164ZM290,155L299,155L299,164L290,164ZM11,164L20,164L20,173L11,173ZM29,164L38,164L38,173L29,173ZM47,164L56,164L56,173L47,173ZM74,164L83,164L83,173L74,173ZM119,164L128,164L128,173L119,173ZM137,164L146,164L146,173L137,173ZM155,164L164,164L164,173L155,173ZM182,164L191,164L191,173L182,173ZM200,164L236,164L236,173L200,173ZM254,164L263,164L263,173L254,173ZM281,164L290,164L290,173L281,173ZM11,173L47,173L47,182L11,182ZM65,173L92,173L92,182L65,182ZM128,173L182,173L182,182L128,182ZM191,173L200,173L200,182L191,182ZM209,173L218,173L218,182L209,182ZM263,173L272,173L272,182L263,182ZM290,173L299,173L299,182L290,182ZM11,182L20,182L20,191L11,191ZM29,182L38,182L38,191L29,191ZM47,182L56,182L56,191L47,191ZM74,182L83,182L83,191L74,191ZM101,182L110,182L110,191L101,191ZM119,182L128,182L128,191L119,191ZM155,182L173,182L173,191L155,191ZM182,182L200,182L200,191L182,191ZM218,182L236,182L236,191L218,191ZM245,182L263,182L263,191L245,191ZM281,182L290,182L290,191L281,191ZM11,191L47,191L47,200L11,200ZM56,191L74,191L74,200L56,200ZM83,191L92,191L92,200L83,200ZM101,191L110,191L110,200L101,200ZM119,191L128,191L128,200L119,200ZM137,191L155,191L155,200L137,200ZM164,191L182,191L182,200L164,200ZM209,191L218,191L218,200L209,200ZM227,191L236,191L236,200L227,200ZM281,191L299,191L299,200L281,200ZM11,200L20,200L20,209L11,209ZM47,200L56,200L56,209L47,209ZM74,200L92,200L92,209L74,209ZM101,200L110,200L110,209L101,209ZM173,200L182,200L182,209L173,209ZM191,200L209,200L209,209L191,209ZM263,200L272,200L272,209L263,209ZM281,200L308,200L308,209L281,209ZM11,209L20,209L20,218L11,218ZM47,209L83,209L83,218L47,218ZM101,209L182,209L182,218L101,218ZM254,209L281,209L281,218L254,218ZM11,218L20,218L20,227L11,227ZM38,218L56,218L56,227L38,227ZM92,218L119,218L119,227L92,227ZM137,218L146,218L146,227L137,227ZM155,218L164,218L164,227L155,227ZM173,218L200,218L200,227L173,227ZM209,218L263,218L263,227L209,227ZM281,218L290,218L290,227L281,227ZM11,227L20,227L20,236L11,236ZM29,227L56,227L56,236L29,236ZM65,227L74,227L74,236L65,236ZM83,227L92,227L92,236L83,236ZM101,227L128,227L128,236L101,236ZM137,227L164,227L164,236L137,236ZM173,227L182,227L182,236L173,236ZM191,227L200,227L200,236L191,236ZM227,227L272,227L272,236L227,236ZM290,227L299,227L299,236L290,236ZM83,236L110,236L110,245L83,245ZM119,236L128,236L128,245L119,245ZM137,236L164,236L164,245L137,245ZM173,236L182,236L182,245L173,245ZM200,236L209,236L209,245L200,245ZM227,236L236,236L236,245L227,245ZM263,236L272,236L272,245L263,245ZM281,236L290,236L290,245L281,245ZM11,245L74,245L74,254L11,254ZM83,245L110,245L110,254L83,254ZM119,245L155,245L155,254L119,254ZM218,245L236,245L236,254L218,254ZM245,245L254,245L254,254L245,254ZM263,245L281,245L281,254L263,254ZM290,245L299,245L299,254L290,254ZM11,254L20,254L20,263L11,263ZM65,254L74,254L74,263L65,263ZM119,254L137,254L137,263L119,263ZM155,254L209,254L209,263L155,263ZM227,254L236,254L236,263L227,263ZM263,254L272,254L272,263L263,263ZM281,254L290,254L290,263L281,263ZM299,254L308,254L308,263L299,263ZM11,263L20,263L20,272L11,272ZM29,263L56,263L56,272L29,272ZM65,263L74,263L74,272L65,272ZM83,263L92,263L92,272L83,272ZM101,263L110,263L110,272L101,272ZM119,263L128,263L128,272L119,272ZM137,263L155,263L155,272L137,272ZM173,263L182,263L182,272L173,272ZM200,263L209,263L209,272L200,272ZM218,263L272,263L272,272L218,272ZM281,263L290,263L290,272L281,272ZM299,263L308,263L308,272L299,272ZM11,272L20,272L20,281L11,281ZM29,272L56,272L56,281L29,281ZM65,272L74,272L74,281L65,281ZM83,272L92,272L92,281L83,281ZM146,272L164,272L164,281L146,281ZM191,272L209,272L209,281L191,281ZM218,272L227,272L227,281L218,281ZM281,272L299,272L299,281L281,281ZM11,281L20,281L20,290L11,290ZM29,281L56,281L56,290L29,290ZM65,281L74,281L74,290L65,290ZM83,281L92,281L92,290L83,290ZM101,281L110,281L110,290L101,290ZM119,281L173,281L173,290L119,290ZM209,281L218,281L218,290L209,290ZM227,281L236,281L236,290L227,290ZM245,281L254,281L254,290L245,290ZM272,281L281,281L281,290L272,290ZM11,290L20,290L20,299L11,299ZM65,290L74,290L74,299L65,299ZM83,290L119,290L119,299L83,299ZM155,290L218,290L218,299L155,299ZM227,290L236,290L236,299L227,299ZM263,290L272,290L272,299L263,299ZM281,290L308,290L308,299L281,299ZM11,299L74,299L74,308L11,308ZM83,299L92,299L92,308L83,308ZM137,299L155,299L155,308L137,308ZM164,299L173,299L173,308L164,308ZM191,299L200,299L200,308L191,308ZM227,299L263,299L263,308L227,308ZM290,299L299,299L299,308L290,308Z"/></svg>
