<?xml version="1.0"?>
<svg xmlns="http://www.w3.org/2000/svg" xmlns:xlink="http://www.w3.org/1999/xlink" version="1.1" width="320px" height="320px" viewBox="0 0 320 320"><rect x="0" y="0" width="320" height="320" fill="#ffffff" fill-opacity="1"/><path fill="#000000" fill-opacity="1" d="M11,11L74,11L74,20L11,20ZM110,11L137,11L137,20L110,20ZM155,11L173,11L173,20L155,20ZM182,11L209,11L209,20L182,20ZM227,11L236,11L236,20L227,20ZM245,11L308,11L308,20L245,20ZM11,20L20,20L20,29L11,29ZM65,20L74,20L74,29L65,29ZM92,20L110,20L110,29L92,29ZM128,20L146,20L146,29L128,29ZM164,20L173,20L173,29L164,29ZM200,20L218,20L218,29L200,29ZM227,20L236,20L236,29L227,29ZM245,20L254,20L254,29L245,29ZM299,20L308,20L308,29L299,29ZM11,29L20,29L20,38L11,38ZM29,29L56,29L56,38L29,38ZM65,29L74,29L74,38L65,38ZM119,29L137,29L137,38L119,38ZM155,29L164,29L164,38L155,38ZM173,29L209,29L209,38L173,38ZM218,29L227,29L227,38L218,38ZM245,29L254,29L254,38L245,38ZM263,29L290,29L290,38L263,38ZM299,29L308,29L308,38L299,38ZM11,38L20,38L20,47L11,47ZM29,38L56,38L56,47L29,47ZM65,38L74,38L74,47L65,47ZM83,38L92,38L92,47L83,47ZM119,38L128,38L128,47L119,47ZM137,38L146,38L146,47L137,47ZM164,38L173,38L173,47L164,47ZM209,38L218,38L218,47L209,47ZM245,38L254,38L254,47L245,47ZM263,38L290,38L290,47L263,47ZM299,38L308,38L308,47L299,47ZM11,47L20,47L20,56L11,56ZM29,47L56,47L56,56L29,56ZM65,47L74,47L74,56L65,56ZM83,47L101,47L101,56L83,56ZM182,47L191,47L191,56L182,56ZM200,47L227,47L227,56L200,56ZM245,47L254,47L254,56L245,56ZM263,47L290,47L290,56L263,56ZM299,47L308,47L308,56L299,56ZM11,56L20,56L20,65L11,65ZM65,56L74,56L74,65L65,65ZM110,56L146,56L146,65L110,65ZM155,56L173,56L173,65L155,65ZM191,56L236,56L236,65L191,65ZM245,56L254,56L254,65L245,65ZM299,56L308,56L308,65L299,65ZM11,65L74,65L74,74L11,74ZM83,65L92,65L92,74L83,74ZM101,65L110,65L110,74L101,74ZM119,65L128,65L128,74L119,74ZM137,65L146,65L146,74L137,74ZM155,65L164,65L164,74L155,74ZM173,65L182,65L182,74L173,74ZM191,65L200,65L200,74L191,74ZM209,65L218,65L218,74L209,74ZM227,65L236,65L236,74L227,74ZM245,65L308,65L308,74L245,74ZM101,74L119,74L119,83L101,83ZM155,74L164,74L164,83L155,83ZM173,74L200,74L200,83L173,83ZM209,74L227,74L227,83L209,83ZM11,83L29,83L29,92L11,92ZM56,83L83,83L83,92L56,92ZM92,83L101,83L101,92L92,92ZM110,83L119,83L119,92L110,92ZM137,83L155,83L155,92L137,92ZM191,83L218,83L218,92L191,92ZM227,83L236,83L236,92L227,92ZM263,83L281,83L281,92L263,92ZM11,92L29,92L29,101L11,101ZM38,92L47,92L47,101L38,101ZM56,92L65,92L65,101L56,101ZM74,92L83,92L83,101L74,101ZM92,92L101,92L101,101L92,101ZM119,92L128,92L128,101L119,101ZM155,92L164,92L164,101L155,101ZM182,92L200,92L200,101L182,101ZM209,92L218,92L218,101L209,101ZM236,92L263,92L263,101L236,101ZM272,92L290,92L290,101L272,101ZM299,92L308,92L308,101L299,101ZM11,101L38,101L38,110L11,110ZM47,101L56,101L56,110L47,110ZM65,101L74,101L74,110L65,110ZM101,101L110,101L110,110L101,110ZM128,101L155,101L155,110L128,110ZM164,101L182,101L182,110L164,110ZM191,101L200,101L200,110L191,110ZM209,101L236,101L236,110L209,110ZM254,101L272,101L272,110L254,110ZM290,101L299,101L299,110L290,110ZM11,110L20,110L20,119L11,119ZM29,110L38,110L38,119L29,119ZM47,110L56,110L56,119L47,119ZM74,110L83,110L83,119L74,119ZM92,110L101,110L101,119L92,119ZM119,110L128,110L128,119L119,119ZM146,110L155,110L155,119L146,119ZM164,110L173,110L173,119L164,119ZM182,110L209,110L209,119L182,119ZM236,110L254,110L254,119L236,119ZM272,110L308,110L308,119L272,119ZM11,119L20,119L20,128L11,128ZM29,119L83,119L83,128L29,128ZM92,119L101,119L101,128L92,128ZM110,119L137,119L137,128L110,128ZM146,119L155,119L155,128L146,128ZM173,119L191,119L191,128L173,128ZM200,119L272,119L272,128L200,128ZM281,119L290,119L290,128L281,128ZM299,119L308,119L308,128L299,128ZM20,128L38,128L38,137L20,137ZM56,128L65,128L65,137L56,137ZM74,128L83,128L83,137L74,137ZM92,128L101,128L101,137L92,137ZM146,128L164,128L164,137L146,137ZM173,128L182,128L182,137L173,137ZM191,128L200,128L200,137L191,137ZM209,128L245,128L245,137L209,137ZM254,128L263,128L263,137L254,137ZM281,128L299,128L299,137L281,137ZM38,137L92,137L92,146L38,146ZM110,137L182,137L182,146L110,146ZM209,137L236,137L236,146L209,146ZM263,137L281,137L281,146L263,146ZM29,146L47,146L47,155L29,155ZM56,146L65,146L65,155L56,155ZM83,146L119,146L119,155L83,155ZM146,146L155,146L155,155L146,155ZM173,146L191,146L191,155L173,155ZM200,146L218,146L218,155L200,155ZM227,146L245,146L245,155L227,155ZM263,146L272,146L272,155L263,155ZM20,155L29,155L29,164L20,164ZM38,155L56,155L56,164L38,164ZM65,155L83,155L83,164L65,164ZM92,155L101,155L101,164L92,164ZM110,155L119,155L119,164L110,164ZM137,155L164,155L164,164L137,164ZM173,155L182,155L182,164L173,164ZM191,155L200,155L200,164L191,164ZM209,155L218,155L218,164L209,164ZM236,155L245,155L245,164L236,164ZM254,155L263,155L263,164L254,164ZM290,155L299,155L299,164L290,164ZM38,164L56,164L56,173L38,173ZM119,164L128,164L128,173L119,173ZM137,164L146,164L146,173L137,173ZM155,164L164,164L164,173L155,173ZM173,164L182,164L182,173L173,173ZM191,164L200,164L200,173L191,173ZM209,164L218,164L218,173L209,173ZM236,164L254,164L254,173L236,173ZM281,164L290,164L290,173L281,173ZM11,173L20,173L20,182L11,182ZM29,173L56,173L56,182L29,182ZM65,173L74,173L74,182L65,182ZM83,173L92,173L92,182L83,182ZM101,173L119,173L119,182L101,182ZM146,173L173,173L173,182L146,182ZM191,173L200,173L200,182L191,182ZM218,173L227,173L227,182L218,182ZM236,173L254,173L254,182L236,182ZM272,173L281,173L281,182L272,182ZM299,173L308,173L308,182L299,182ZM20,182L29,182L29,191L20,191ZM47,182L56,182L56,191L47,191ZM83,182L92,182L92,191L83,191ZM119,182L137,182L137,191L119,191ZM146,182L182,182L182,191L146,191ZM191,182L209,182L209,191L191,191ZM218,182L236,182L236,191L218,191ZM245,182L254,182L254,191L245,191ZM281,182L290,182L290,191L281,191ZM20,191L47,191L47,200L20,200ZM56,191L74,191L74,200L56,200ZM83,191L101,191L101,200L83,200ZM119,191L128,191L128,200L119,200ZM137,191L164,191L164,200L137,200ZM173,191L182,191L182,200L173,200ZM209,191L218,191L218,200L209,200ZM227,191L236,191L236,200L227,200ZM281,191L299,191L299,200L281,200ZM11,200L20,200L20,209L11,209ZM29,200L56,200L56,209L29,209ZM74,200L92,200L92,209L74,209ZM101,200L110,200L110,209L101,209ZM137,200L146,200L146,209L137,209ZM155,200L164,200L164,209L155,209ZM182,200L200,200L200,209L182,209ZM209,200L218,200L218,209L209,209ZM227,200L236,200L236,209L227,209ZM245,200L263,200L263,209L245,209ZM281,200L308,200L308,209L281,209ZM11,209L20,209L20,218L11,218ZM29,209L47,209L47,218L29,218ZM56,209L83,209L83,218L56,218ZM92,209L146,209L146,218L92,218ZM164,209L173,209L173,218L164,218ZM182,209L191,209L191,218L182,218ZM254,209L281,209L281,218L254,218ZM11,218L20,218L20,227L11,227ZM29,218L56,218L56,227L29,227ZM74,218L92,218L92,227L74,227ZM110,218L119,218L119,227L110,227ZM146,218L182,218L182,227L146,227ZM200,218L254,218L254,227L200,227ZM281,218L290,218L290,227L281,227ZM11,227L29,227L29,236L11,236ZM38,227L47,227L47,236L38,236ZM65,227L74,227L74,236L65,236ZM83,227L92,227L92,236L83,236ZM101,227L110,227L110,236L101,236ZM128,227L137,227L137,236L128,236ZM146,227L164,227L164,236L146,236ZM182,227L200,227L200,236L182,236ZM209,227L281,227L281,236L209,236ZM299,227L308,227L308,236L299,236ZM83,236L101,236L101,245L83,245ZM119,236L128,236L128,245L119,245ZM137,236L164,236L164,245L137,245ZM173,236L200,236L200,245L173,245ZM227,236L236,236L236,245L227,245ZM263,236L272,236L272,245L263,245ZM281,236L290,236L290,245L281,245ZM11,245L74,245L74,254L11,254ZM83,245L101,245L101,254L83,254ZM128,245L173,245L173,254L128,254ZM218,245L236,245L236,254L218,254ZM245,245L254,245L254,254L245,254ZM263,245L281,245L281,254L263,254ZM290,245L299,245L299,254L290,254ZM11,254L20,254L20,263L11,263ZM65,254L74,254L74,263L65,263ZM83,254L92,254L92,263L83,263ZM119,254L128,254L128,263L119,263ZM137,254L155,254L155,263L137,263ZM182,254L191,254L191,263L182,263ZM209,254L218,254L218,263L209,263ZM227,254L236,254L236,263L227,263ZM263,254L272,254L272,263L263,263ZM281,254L290,254L290,263L281,263ZM11,263L20,263L20,272L11,272ZM29,263L56,263L56,272L29,272ZM65,263L74,263L74,272L65,272ZM92,263L101,263L101,272L92,272ZM119,263L128,263L128,272L119,272ZM137,263L155,263L155,272L137,272ZM191,263L209,263L209,272L191,272ZM218,263L272,263L272,272L218,272ZM281,263L290,263L290,272L281,272ZM299,263L308,263L308,272L299,272ZM11,272L20,272L20,281L11,281ZM29,272L56,272L56,281L29,281ZM65,272L74,272L74,281L65,281ZM92,272L110,272L110,281L92,281ZM146,272L155,272L155,281L146,281ZM173,272L191,272L191,281L173,281ZM218,272L227,272L227,281L218,281ZM254,272L263,272L263,281L254,281ZM281,272L299,272L299,281L281,281ZM11,281L20,281L20,290L11,290ZM29,281L56,281L56,290L29,290ZM65,281L74,281L74,290L65,290ZM101,281L110,281L110,290L101,290ZM119,281L155,281L155,290L119,290ZM182,281L191,281L191,290L182,290ZM218,281L236,281L236,290L218,290ZM245,281L254,281L254,290L245,290ZM263,281L272,281L272,290L263,290ZM290,281L308,281L308,290L290,290ZM11,290L20,290L20,299L11,299ZM65,290L74,290L74,299L65,299ZM83,290L101,290L101,299L83,299ZM110,290L119,290L119,299L110,299ZM146,290L164,290L164,299L146,299ZM173,290L200,290L200,299L173,299ZM254,290L272,290L272,299L254,299ZM281,290L308,290L308,299L281,299ZM11,299L74,299L74,308L11,308ZM83,299L92,299L92,308L83,308ZM101,299L128,299L128,308L101,308ZM146,299L164,299L164,308L146,308ZM200,299L263,299L263,308L200,308ZM290,299L299,299L299,308L290,308Z"/></svg>
