<?xml version="1.0"?>
<svg xmlns="http://www.w3.org/2000/svg" xmlns:xlink="http://www.w3.org/1999/xlink" version="1.1" width="320px" height="320px" viewBox="0 0 320 320"><rect x="0" y="0" width="320" height="320" fill="#ffffff" fill-opacity="1"/><path fill="#000000" fill-opacity="1" d="M11,11L74,11L74,20L11,20ZM92,11L101,11L101,20L92,20ZM119,11L128,11L128,20L119,20ZM146,11L164,11L164,20L146,20ZM191,11L200,11L200,20L191,20ZM218,11L236,11L236,20L218,20ZM245,11L308,11L308,20L245,20ZM11,20L20,20L20,29L11,29ZM65,20L74,20L74,29L65,29ZM101,20L128,20L128,29L101,29ZM137,20L155,20L155,29L137,29ZM173,20L191,20L191,29L173,29ZM209,20L227,20L227,29L209,29ZM245,20L254,20L254,29L245,29ZM299,20L308,20L308,29L299,29ZM11,29L20,29L20,38L11,38ZM29,29L56,29L56,38L29,38ZM65,29L74,29L74,38L65,38ZM83,29L110,29L110,38L83,38ZM119,29L155,29L155,38L119,38ZM173,29L191,29L191,38L173,38ZM209,29L227,29L227,38L209,38ZM245,29L254,29L254,38L245,38ZM263,29L290,29L290,38L263,38ZM299,29L308,29L308,38L299,38ZM11,38L20,38L20,47L11,47ZM29,38L56,38L56,47L29,47ZM65,38L74,38L74,47L65,47ZM92,38L119,38L119,47L92,47ZM128,38L137,38L137,47L128,47ZM146,38L164,38L164,47L146,47ZM173,38L209,38L209,47L173,47ZM218,38L236,38L236,47L218,47ZM245,38L254,38L254,47L245,47ZM263,38L290,38L290,47L263,47ZM299,38L308,38L308,47L299,47ZM11,47L20,47L20,56L11,56ZM29,47L56,47L56,56L29,56ZM65,47L74,47L74,56L65,56ZM101,47L110,47L110,56L101,56ZM137,47L164,47L164,56L137,56ZM182,47L200,47L200,56L182,56ZM218,47L227,47L227,56L218,56ZM245,47L254,47L254,56L245,56ZM263,47L290,47L290,56L263,56ZM299,47L308,47L308,56L299,56ZM11,56L20,56L20,65L11,65ZM65,56L74,56L74,65L65,65ZM92,56L101,56L101,65L92,65ZM137,56L164,56L164,65L137,65ZM173,56L200,56L200,65L173,65ZM209,56L218,56L218,65L209,65ZM245,56L254,56L254,65L245,65ZM299,56L308,56L308,65L299,65ZM11,65L74,65L74,74L11,74ZM83,65L92,65L92,74L83,74ZM101,65L110,65L110,74L101,74ZM119,65L128,65L128,74L119,74ZM137,65L146,65L146,74L137,74ZM155,65L164,65L164,74L155,74ZM173,65L182,65L182,74L173,74ZM191,65L200,65L200,74L191,74ZM209,65L218,65L218,74L209,74ZM227,65L236,65L236,74L227,74ZM245,65L308,65L308,74L245,74ZM83,74L110,74L110,83L83,83ZM119,74L137,74L137,83L119,83ZM146,74L173,74L173,83L146,83ZM191,74L218,74L218,83L191,83ZM227,74L236,74L236,83L227,83ZM11,83L38,83L38,92L11,92ZM47,83L92,83L92,92L47,92ZM101,83L119,83L119,92L101,92ZM155,83L164,83L164,92L155,92ZM227,83L254,83L254,92L227,92ZM281,83L290,83L290,92L281,92ZM20,92L29,92L29,101L20,101ZM38,92L65,92L65,101L38,101ZM74,92L92,92L92,101L74,101ZM101,92L119,92L119,101L101,101ZM128,92L155,92L155,101L128,101ZM164,92L182,92L182,101L164,101ZM200,92L209,92L209,101L200,101ZM218,92L236,92L236,101L218,101ZM263,92L272,92L272,101L263,101ZM290,92L299,92L299,101L290,101ZM11,101L29,101L29,110L11,110ZM38,101L56,101L56,110L38,110ZM65,101L83,101L83,110L65,110ZM92,101L101,101L101,110L92,110ZM128,101L137,101L137,110L128,110ZM155,101L182,101L182,110L155,110ZM200,101L209,101L209,110L200,110ZM218,101L236,101L236,110L218,110ZM245,101L254,101L254,110L245,110ZM290,101L308,101L308,110L290,110ZM11,110L56,110L56,119L11,119ZM110,110L119,110L119,119L110,119ZM128,110L137,110L137,119L128,119ZM173,110L182,110L182,119L173,119ZM191,110L200,110L200,119L191,119ZM218,110L236,110L236,119L218,119ZM245,110L263,110L263,119L245,119ZM299,110L308,110L308,119L299,119ZM11,119L20,119L20,128L11,128ZM29,119L38,119L38,128L29,128ZM56,119L74,119L74,128L56,128ZM83,119L92,119L92,128L83,128ZM119,119L128,119L128,128L119,128ZM164,119L182,119L182,128L164,128ZM209,119L218,119L218,128L209,128ZM227,119L236,119L236,128L227,128ZM245,119L308,119L308,128L245,128ZM20,128L29,128L29,137L20,137ZM38,128L56,128L56,137L38,137ZM110,128L137,128L137,137L110,137ZM155,128L173,128L173,137L155,137ZM182,128L218,128L218,137L182,137ZM236,128L245,128L245,137L236,137ZM272,128L281,128L281,137L272,137ZM56,137L74,137L74,146L56,146ZM83,137L92,137L92,146L83,146ZM101,137L137,137L137,146L101,146ZM164,137L182,137L182,146L164,146ZM191,137L209,137L209,146L191,146ZM218,137L236,137L236,146L218,146ZM245,137L263,137L263,146L245,146ZM272,137L281,137L281,146L272,146ZM299,137L308,137L308,146L299,146ZM20,146L29,146L29,155L20,155ZM47,146L56,146L56,155L47,155ZM74,146L92,146L92,155L74,155ZM119,146L146,146L146,155L119,155ZM155,146L173,146L173,155L155,155ZM191,146L200,146L200,155L191,155ZM218,146L227,146L227,155L218,155ZM245,146L263,146L263,155L245,155ZM272,146L308,146L308,155L272,155ZM11,155L56,155L56,164L11,164ZM65,155L74,155L74,164L65,164ZM92,155L119,155L119,164L92,164ZM173,155L182,155L182,164L173,164ZM200,155L209,155L209,164L200,164ZM227,155L236,155L236,164L227,164ZM245,155L254,155L254,164L245,164ZM263,155L272,155L272,164L263,164ZM290,155L308,155L308,164L290,164ZM38,164L56,164L56,173L38,173ZM83,164L101,164L101,173L83,173ZM110,164L119,164L119,173L110,173ZM128,164L173,164L173,173L128,173ZM182,164L227,164L227,173L182,173ZM236,164L263,164L263,173L236,173ZM272,164L281,164L281,173L272,173ZM290,164L299,164L299,173L290,173ZM11,173L20,173L20,182L11,182ZM29,173L47,173L47,182L29,182ZM56,173L74,173L74,182L56,182ZM128,173L137,173L137,182L128,182ZM155,173L164,173L164,182L155,182ZM182,173L209,173L209,182L182,182ZM218,173L227,173L227,182L218,182ZM245,173L263,173L263,182L245,182ZM290,173L308,173L308,182L290,182ZM20,182L29,182L29,191L20,191ZM74,182L83,182L83,191L74,191ZM92,182L119,182L119,191L92,191ZM155,182L164,182L164,191L155,191ZM182,182L200,182L200,191L182,191ZM236,182L263,182L263,191L236,191ZM272,182L281,182L281,191L272,191ZM290,182L299,182L299,191L290,191ZM20,191L38,191L38,200L20,200ZM65,191L74,191L74,200L65,200ZM92,191L110,191L110,200L92,200ZM119,191L128,191L128,200L119,200ZM173,191L182,191L182,200L173,200ZM191,191L209,191L209,200L191,200ZM245,191L272,191L272,200L245,200ZM281,191L308,191L308,200L281,200ZM20,200L47,200L47,209L20,209ZM56,200L65,200L65,209L56,209ZM74,200L83,200L83,209L74,209ZM110,200L137,200L137,209L110,209ZM146,200L155,200L155,209L146,209ZM164,200L182,200L182,209L164,209ZM200,200L209,200L209,209L200,209ZM218,200L245,200L245,209L218,209ZM263,200L281,200L281,209L263,209ZM11,209L20,209L20,218L11,218ZM29,209L38,209L38,218L29,218ZM47,209L56,209L56,218L47,218ZM65,209L101,209L101,218L65,218ZM110,209L137,209L137,218L110,218ZM146,209L173,209L173,218L146,218ZM182,209L218,209L218,218L182,218ZM245,209L254,209L254,218L245,218ZM272,209L281,209L281,218L272,218ZM299,209L308,209L308,218L299,218ZM20,218L29,218L29,227L20,227ZM38,218L47,218L47,227L38,227ZM56,218L65,218L65,227L56,227ZM74,218L83,218L83,227L74,227ZM119,218L137,218L137,227L119,227ZM155,218L164,218L164,227L155,227ZM182,218L191,218L191,227L182,227ZM209,218L218,218L218,227L209,227ZM245,218L263,218L263,227L245,227ZM272,218L281,218L281,227L272,227ZM290,218L299,218L299,227L290,227ZM11,227L20,227L20,236L11,236ZM38,227L47,227L47,236L38,236ZM56,227L83,227L83,236L56,236ZM92,227L119,227L119,236L92,236ZM155,227L173,227L173,236L155,236ZM200,227L218,227L218,236L200,236ZM227,227L272,227L272,236L227,236ZM290,227L308,227L308,236L290,236ZM83,236L119,236L119,245L83,245ZM128,236L146,236L146,245L128,245ZM155,236L173,236L173,245L155,245ZM182,236L191,236L191,245L182,245ZM200,236L209,236L209,245L200,245ZM218,236L236,236L236,245L218,245ZM263,236L281,236L281,245L263,245ZM290,236L299,236L299,245L290,245ZM11,245L74,245L74,254L11,254ZM83,245L92,245L92,254L83,254ZM128,245L137,245L137,254L128,254ZM164,245L173,245L173,254L164,254ZM191,245L236,245L236,254L191,254ZM245,245L254,245L254,254L245,254ZM263,245L281,245L281,254L263,254ZM290,245L308,245L308,254L290,254ZM11,254L20,254L20,263L11,263ZM65,254L74,254L74,263L65,263ZM83,254L101,254L101,263L83,263ZM110,254L119,254L119,263L110,263ZM128,254L137,254L137,263L128,263ZM155,254L182,254L182,263L155,263ZM191,254L209,254L209,263L191,263ZM218,254L236,254L236,263L218,263ZM263,254L281,254L281,263L263,263ZM290,254L308,254L308,263L290,263ZM11,263L20,263L20,272L11,272ZM29,263L56,263L56,272L29,272ZM65,263L74,263L74,272L65,272ZM83,263L92,263L92,272L83,272ZM119,263L128,263L128,272L119,272ZM155,263L164,263L164,272L155,272ZM191,263L200,263L200,272L191,272ZM209,263L272,263L272,272L209,272ZM281,263L290,263L290,272L281,272ZM11,272L20,272L20,281L11,281ZM29,272L56,272L56,281L29,281ZM65,272L74,272L74,281L65,281ZM92,272L137,272L137,281L92,281ZM164,272L173,272L173,281L164,281ZM182,272L209,272L209,281L182,281ZM227,272L245,272L245,281L227,281ZM272,272L281,272L281,281L272,281ZM11,281L20,281L20,290L11,290ZM29,281L56,281L56,290L29,290ZM65,281L74,281L74,290L65,290ZM83,281L92,281L92,290L83,290ZM110,281L128,281L128,290L110,290ZM137,281L146,281L146,290L137,290ZM164,281L173,281L173,290L164,290ZM191,281L209,281L209,290L191,290ZM227,281L281,281L281,290L227,290ZM299,281L308,281L308,290L299,290ZM11,290L20,290L20,299L11,299ZM65,290L74,290L74,299L65,299ZM83,290L92,290L92,299L83,299ZM101,290L110,290L110,299L101,299ZM119,290L137,290L137,299L119,299ZM155,290L173,290L173,299L155,299ZM191,290L218,290L218,299L191,299ZM236,290L245,290L245,299L236,299ZM263,290L281,290L281,299L263,299ZM299,290L308,290L308,299L299,299ZM11,299L74,299L74,308L11,308ZM83,299L101,299L101,308L83,308ZM110,299L128,299L128,308L110,308ZM137,299L146,299L146,308L137,308ZM200,299L245,299L245,308L200,308ZM263,299L272,299L272,308L263,308ZM290,299L308,299L308,308L290,308Z"/></svg>
