<?xml version="1.0"?>
<svg xmlns="http://www.w3.org/2000/svg" xmlns:xlink="http://www.w3.org/1999/xlink" version="1.1" width="320px" height="320px" viewBox="0 0 320 320"><rect x="0" y="0" width="320" height="320" fill="#ffffff" fill-opacity="1"/><path fill="#000000" fill-opacity="1" d="M11,11L74,11L74,20L11,20ZM92,11L101,11L101,20L92,20ZM119,11L128,11L128,20L119,20ZM137,11L155,11L155,20L137,20ZM173,11L182,11L182,20L173,20ZM218,11L236,11L236,20L218,20ZM245,11L308,11L308,20L245,20ZM11,20L20,20L20,29L11,29ZM65,20L74,20L74,29L65,29ZM83,20L92,20L92,29L83,29ZM110,20L155,20L155,29L110,29ZM164,20L173,20L173,29L164,29ZM191,20L200,20L200,29L191,29ZM218,20L227,20L227,29L218,29ZM245,20L254,20L254,29L245,29ZM299,20L308,20L308,29L299,29ZM11,29L20,29L20,38L11,38ZM29,29L56,29L56,38L29,38ZM65,29L74,29L74,38L65,38ZM83,29L137,29L137,38L83,38ZM146,29L155,29L155,38L146,38ZM173,29L200,29L200,38L173,38ZM209,29L218,29L218,38L209,38ZM245,29L254,29L254,38L245,38ZM263,29L290,29L290,38L263,38ZM299,29L308,29L308,38L299,38ZM11,38L20,38L20,47L11,47ZM29,38L56,38L56,47L29,47ZM65,38L74,38L74,47L65,47ZM92,38L119,38L119,47L92,47ZM128,38L137,38L137,47L128,47ZM146,38L155,38L155,47L146,47ZM182,38L209,38L209,47L182,47ZM218,38L236,38L236,47L218,47ZM245,38L254,38L254,47L245,47ZM263,38L290,38L290,47L263,47ZM299,38L308,38L308,47L299,47ZM11,47L20,47L20,56L11,56ZM29,47L56,47L56,56L29,56ZM65,47L74,47L74,56L65,56ZM83,47L92,47L92,56L83,56ZM128,47L137,47L137,56L128,56ZM146,47L155,47L155,56L146,56ZM173,47L182,47L182,56L173,56ZM191,47L200,47L200,56L191,56ZM209,47L227,47L227,56L209,56ZM245,47L254,47L254,56L245,56ZM263,47L290,47L290,56L263,56ZM299,47L308,47L308,56L299,56ZM11,56L20,56L20,65L11,65ZM65,56L74,56L74,65L65,65ZM83,56L101,56L101,65L83,65ZM110,56L119,56L119,65L110,65ZM146,56L164,56L164,65L146,65ZM173,56L191,56L191,65L173,65ZM209,56L227,56L227,65L209,65ZM245,56L254,56L254,65L245,65ZM299,56L308,56L308,65L299,65ZM11,65L74,65L74,74L11,74ZM83,65L92,65L92,74L83,74ZM101,65L110,65L110,74L101,74ZM119,65L128,65L128,74L119,74ZM137,65L146,65L146,74L137,74ZM155,65L164,65L164,74L155,74ZM173,65L182,65L182,74L173,74ZM191,65L200,65L200,74L191,74ZM209,65L218,65L218,74L209,74ZM227,65L236,65L236,74L227,74ZM245,65L308,65L308,74L245,74ZM83,74L101,74L101,83L83,83ZM119,74L128,74L128,83L119,83ZM182,74L209,74L209,83L182,83ZM227,74L236,74L236,83L227,83ZM11,83L29,83L29,92L11,92ZM38,83L47,83L47,92L38,92ZM65,83L83,83L83,92L65,92ZM101,83L110,83L110,92L101,92ZM119,83L128,83L128,92L119,92ZM137,83L146,83L146,92L137,92ZM164,83L173,83L173,92L164,92ZM191,83L200,83L200,92L191,92ZM218,83L236,83L236,92L218,92ZM245,83L272,83L272,92L245,92ZM281,83L299,83L299,92L281,92ZM20,92L38,92L38,101L20,101ZM47,92L65,92L65,101L47,101ZM101,92L119,92L119,101L101,101ZM128,92L209,92L209,101L128,101ZM218,92L236,92L236,101L218,101ZM263,92L272,92L272,101L263,101ZM290,92L299,92L299,101L290,101ZM11,101L29,101L29,110L11,110ZM38,101L56,101L56,110L38,110ZM65,101L83,101L83,110L65,110ZM92,101L110,101L110,110L92,110ZM119,101L128,101L128,110L119,110ZM164,101L173,101L173,110L164,110ZM182,101L254,101L254,110L182,110ZM263,101L272,101L272,110L263,110ZM299,101L308,101L308,110L299,110ZM20,110L38,110L38,119L20,119ZM56,110L65,110L65,119L56,119ZM74,110L92,110L92,119L74,119ZM128,110L137,110L137,119L128,119ZM155,110L164,110L164,119L155,119ZM227,110L236,110L236,119L227,119ZM254,110L263,110L263,119L254,119ZM272,110L281,110L281,119L272,119ZM20,119L29,119L29,128L20,128ZM47,119L74,119L74,128L47,128ZM119,119L137,119L137,128L119,128ZM155,119L164,119L164,128L155,128ZM191,119L200,119L200,128L191,128ZM209,119L218,119L218,128L209,128ZM227,119L236,119L236,128L227,128ZM245,119L254,119L254,128L245,128ZM263,119L308,119L308,128L263,128ZM20,128L29,128L29,137L20,137ZM38,128L47,128L47,137L38,137ZM74,128L92,128L92,137L74,137ZM101,128L128,128L128,137L101,137ZM137,128L155,128L155,137L137,137ZM164,128L182,128L182,137L164,137ZM191,128L209,128L209,137L191,137ZM236,128L245,128L245,137L236,137ZM263,128L281,128L281,137L263,137ZM290,128L299,128L299,137L290,137ZM11,137L20,137L20,146L11,146ZM56,137L74,137L74,146L56,146ZM101,137L137,137L137,146L101,146ZM191,137L209,137L209,146L191,146ZM227,137L236,137L236,146L227,146ZM254,137L263,137L263,146L254,146ZM11,146L29,146L29,155L11,155ZM38,146L56,146L56,155L38,155ZM74,146L92,146L92,155L74,155ZM119,146L137,146L137,155L119,155ZM155,146L182,146L182,155L155,155ZM191,146L200,146L200,155L191,155ZM218,146L227,146L227,155L218,155ZM245,146L263,146L263,155L245,155ZM272,146L308,146L308,155L272,155ZM11,155L38,155L38,164L11,164ZM65,155L83,155L83,164L65,164ZM101,155L110,155L110,164L101,164ZM128,155L146,155L146,164L128,164ZM164,155L218,155L218,164L164,164ZM236,155L245,155L245,164L236,164ZM299,155L308,155L308,164L299,164ZM11,164L38,164L38,173L11,173ZM92,164L110,164L110,173L92,173ZM119,164L146,164L146,173L119,173ZM155,164L164,164L164,173L155,173ZM173,164L218,164L218,173L173,173ZM245,164L263,164L263,173L245,173ZM290,164L308,164L308,173L290,173ZM29,173L38,173L38,182L29,182ZM47,173L56,173L56,182L47,182ZM65,173L74,173L74,182L65,182ZM101,173L110,173L110,182L101,182ZM119,173L128,173L128,182L119,182ZM146,173L173,173L173,182L146,182ZM191,173L209,173L209,182L191,182ZM218,173L227,173L227,182L218,182ZM245,173L263,173L263,182L245,182ZM290,173L308,173L308,182L290,182ZM11,182L20,182L20,191L11,191ZM29,182L47,182L47,191L29,191ZM56,182L65,182L65,191L56,191ZM119,182L128,182L128,191L119,191ZM137,182L146,182L146,191L137,191ZM164,182L191,182L191,191L164,191ZM209,182L218,182L218,191L209,191ZM245,182L281,182L281,191L245,191ZM20,191L38,191L38,200L20,200ZM56,191L74,191L74,200L56,200ZM83,191L92,191L92,200L83,200ZM101,191L137,191L137,200L101,200ZM173,191L182,191L182,200L173,200ZM200,191L209,191L209,200L200,200ZM218,191L236,191L236,200L218,200ZM254,191L299,191L299,200L254,200ZM38,200L47,200L47,209L38,209ZM56,200L65,200L65,209L56,209ZM74,200L155,200L155,209L74,209ZM164,200L209,200L209,209L164,209ZM218,200L245,200L245,209L218,209ZM263,200L281,200L281,209L263,209ZM299,200L308,200L308,209L299,209ZM11,209L47,209L47,218L11,218ZM65,209L74,209L74,218L65,218ZM83,209L101,209L101,218L83,218ZM110,209L128,209L128,218L110,218ZM146,209L155,209L155,218L146,218ZM164,209L173,209L173,218L164,218ZM182,209L191,209L191,218L182,218ZM200,209L209,209L209,218L200,218ZM236,209L254,209L254,218L236,218ZM263,209L281,209L281,218L263,218ZM299,209L308,209L308,218L299,218ZM20,218L29,218L29,227L20,227ZM47,218L65,218L65,227L47,227ZM74,218L83,218L83,227L74,227ZM101,218L164,218L164,227L101,227ZM209,218L227,218L227,227L209,227ZM254,218L263,218L263,227L254,227ZM290,218L308,218L308,227L290,227ZM11,227L20,227L20,236L11,236ZM29,227L47,227L47,236L29,236ZM65,227L83,227L83,236L65,236ZM92,227L110,227L110,236L92,236ZM128,227L146,227L146,236L128,236ZM155,227L164,227L164,236L155,236ZM173,227L182,227L182,236L173,236ZM200,227L218,227L218,236L200,236ZM227,227L272,227L272,236L227,236ZM290,227L308,227L308,236L290,236ZM83,236L92,236L92,245L83,245ZM101,236L128,236L128,245L101,245ZM137,236L191,236L191,245L137,245ZM200,236L236,236L236,245L200,245ZM263,236L281,236L281,245L263,245ZM11,245L74,245L74,254L11,254ZM83,245L92,245L92,254L83,254ZM101,245L119,245L119,254L101,254ZM128,245L146,245L146,254L128,254ZM155,245L164,245L164,254L155,254ZM191,245L218,245L218,254L191,254ZM227,245L236,245L236,254L227,254ZM245,245L254,245L254,254L245,254ZM263,245L272,245L272,254L263,254ZM290,245L299,245L299,254L290,254ZM11,254L20,254L20,263L11,263ZM65,254L74,254L74,263L65,263ZM101,254L110,254L110,263L101,263ZM119,254L128,254L128,263L119,263ZM164,254L173,254L173,263L164,263ZM191,254L209,254L209,263L191,263ZM218,254L236,254L236,263L218,263ZM263,254L281,254L281,263L263,263ZM290,254L308,254L308,263L290,263ZM11,263L20,263L20,272L11,272ZM29,263L56,263L56,272L29,272ZM65,263L74,263L74,272L65,272ZM92,263L101,263L101,272L92,272ZM119,263L146,263L146,272L119,272ZM164,263L173,263L173,272L164,272ZM182,263L191,263L191,272L182,272ZM218,263L272,263L272,272L218,272ZM281,263L299,263L299,272L281,272ZM11,272L20,272L20,281L11,281ZM29,272L56,272L56,281L29,281ZM65,272L74,272L74,281L65,281ZM83,272L101,272L101,281L83,281ZM119,272L146,272L146,281L119,281ZM173,272L191,272L191,281L173,281ZM200,272L209,272L209,281L200,281ZM218,272L254,272L254,281L218,281ZM299,272L308,272L308,281L299,281ZM11,281L20,281L20,290L11,290ZM29,281L56,281L56,290L29,290ZM65,281L74,281L74,290L65,290ZM92,281L110,281L110,290L92,290ZM119,281L137,281L137,290L119,290ZM146,281L155,281L155,290L146,290ZM164,281L173,281L173,290L164,290ZM191,281L209,281L209,290L191,290ZM227,281L281,281L281,290L227,290ZM299,281L308,281L308,290L299,290ZM11,290L20,290L20,299L11,299ZM65,290L74,290L74,299L65,299ZM83,290L92,290L92,299L83,299ZM119,290L128,290L128,299L119,299ZM155,290L173,290L173,299L155,299ZM182,290L209,290L209,299L182,299ZM272,290L281,290L281,299L272,299ZM290,290L308,290L308,299L290,299ZM11,299L74,299L74,308L11,308ZM83,299L92,299L92,308L83,308ZM101,299L119,299L119,308L101,308ZM137,299L146,299L146,308L137,308ZM164,299L173,299L173,308L164,308ZM227,299L254,299L254,308L227,308ZM263,299L281,299L281,308L263,308ZM290,299L299,299L299,308L290,308Z"/></svg>
