<?xml version="1.0"?>
<svg xmlns="http://www.w3.org/2000/svg" xmlns:xlink="http://www.w3.org/1999/xlink" version="1.1" width="320px" height="320px" viewBox="0 0 320 320"><rect x="0" y="0" width="320" height="320" fill="#ffffff" fill-opacity="1"/><path fill="#000000" fill-opacity="1" d="M11,11L74,11L74,20L11,20ZM83,11L92,11L92,20L83,20ZM101,11L110,11L110,20L101,20ZM119,11L128,11L128,20L119,20ZM155,11L164,11L164,20L155,20ZM173,11L182,11L182,20L173,20ZM191,11L236,11L236,20L191,20ZM245,11L308,11L308,20L245,20ZM11,20L20,20L20,29L11,29ZM65,20L74,20L74,29L65,29ZM92,20L137,20L137,29L92,29ZM155,20L173,20L173,29L155,29ZM200,20L227,20L227,29L200,29ZM245,20L254,20L254,29L245,29ZM299,20L308,20L308,29L299,29ZM11,29L20,29L20,38L11,38ZM29,29L56,29L56,38L29,38ZM65,29L74,29L74,38L65,38ZM83,29L110,29L110,38L83,38ZM146,29L155,29L155,38L146,38ZM164,29L173,29L173,38L164,38ZM191,29L200,29L200,38L191,38ZM209,29L236,29L236,38L209,38ZM245,29L254,29L254,38L245,38ZM263,29L290,29L290,38L263,38ZM299,29L308,29L308,38L299,38ZM11,38L20,38L20,47L11,47ZM29,38L56,38L56,47L29,47ZM65,38L74,38L74,47L65,47ZM83,38L110,38L110,47L83,47ZM119,38L128,38L128,47L119,47ZM146,38L155,38L155,47L146,47ZM164,38L182,38L182,47L164,47ZM191,38L209,38L209,47L191,47ZM245,38L254,38L254,47L245,47ZM263,38L290,38L290,47L263,47ZM299,38L308,38L308,47L299,47ZM11,47L20,47L20,56L11,56ZM29,47L56,47L56,56L29,56ZM65,47L74,47L74,56L65,56ZM83,47L92,47L92,56L83,56ZM110,47L128,47L128,56L110,56ZM146,47L155,47L155,56L146,56ZM164,47L173,47L173,56L164,56ZM182,47L200,47L200,56L182,56ZM209,47L218,47L218,56L209,56ZM227,47L236,47L236,56L227,56ZM245,47L254,47L254,56L245,56ZM263,47L290,47L290,56L263,56ZM299,47L308,47L308,56L299,56ZM11,56L20,56L20,65L11,65ZM65,56L74,56L74,65L65,65ZM101,56L119,56L119,65L101,65ZM137,56L146,56L146,65L137,65ZM173,56L209,56L209,65L173,65ZM218,56L227,56L227,65L218,65ZM245,56L254,56L254,65L245,65ZM299,56L308,56L308,65L299,65ZM11,65L74,65L74,74L11,74ZM83,65L92,65L92,74L83,74ZM101,65L110,65L110,74L101,74ZM119,65L128,65L128,74L119,74ZM137,65L146,65L146,74L137,74ZM155,65L164,65L164,74L155,74ZM173,65L182,65L182,74L173,74ZM191,65L200,65L200,74L191,74ZM209,65L218,65L218,74L209,74ZM227,65L236,65L236,74L227,74ZM245,65L308,65L308,74L245,74ZM101,74L110,74L110,83L101,83ZM119,74L128,74L128,83L119,83ZM137,74L164,74L164,83L137,83ZM182,74L191,74L191,83L182,83ZM209,74L218,74L218,83L209,83ZM227,74L236,74L236,83L227,83ZM11,83L47,83L47,92L11,92ZM65,83L74,83L74,92L65,92ZM83,83L92,83L92,92L83,92ZM101,83L119,83L119,92L101,92ZM128,83L146,83L146,92L128,92ZM173,83L200,83L200,92L173,92ZM236,83L245,83L245,92L236,92ZM263,83L290,83L290,92L263,92ZM299,83L308,83L308,92L299,92ZM11,92L20,92L20,101L11,101ZM29,92L56,92L56,101L29,101ZM74,92L83,92L83,101L74,101ZM101,92L110,92L110,101L101,101ZM119,92L128,92L128,101L119,101ZM137,92L164,92L164,101L137,101ZM191,92L209,92L209,101L191,101ZM236,92L245,92L245,101L236,101ZM263,92L290,92L290,101L263,101ZM11,101L38,101L38,110L11,110ZM56,101L74,101L74,110L56,110ZM83,101L119,101L119,110L83,110ZM128,101L137,101L137,110L128,110ZM173,101L182,101L182,110L173,110ZM191,101L218,101L218,110L191,110ZM245,101L254,101L254,110L245,110ZM263,101L308,101L308,110L263,110ZM20,110L56,110L56,119L20,119ZM74,110L83,110L83,119L74,119ZM92,110L110,110L110,119L92,119ZM128,110L155,110L155,119L128,119ZM191,110L218,110L218,119L191,119ZM227,110L236,110L236,119L227,119ZM245,110L254,110L254,119L245,119ZM263,110L281,110L281,119L263,119ZM299,110L308,110L308,119L299,119ZM38,119L56,119L56,128L38,128ZM65,119L74,119L74,128L65,128ZM83,119L110,119L110,128L83,128ZM119,119L155,119L155,128L119,128ZM200,119L209,119L209,128L200,128ZM227,119L236,119L236,128L227,128ZM254,119L263,119L263,128L254,128ZM272,119L299,119L299,128L272,128ZM11,128L20,128L20,137L11,137ZM38,128L47,128L47,137L38,137ZM56,128L65,128L65,137L56,137ZM74,128L92,128L92,137L74,137ZM110,128L128,128L128,137L110,137ZM155,128L182,128L182,137L155,137ZM209,128L218,128L218,137L209,137ZM254,128L263,128L263,137L254,137ZM272,128L281,128L281,137L272,137ZM290,128L308,128L308,137L290,137ZM29,137L47,137L47,146L29,146ZM56,137L74,137L74,146L56,146ZM92,137L101,137L101,146L92,146ZM164,137L209,137L209,146L164,146ZM218,137L227,137L227,146L218,146ZM236,137L245,137L245,146L236,146ZM254,137L263,137L263,146L254,146ZM272,137L299,137L299,146L272,146ZM38,146L47,146L47,155L38,155ZM74,146L101,146L101,155L74,155ZM110,146L119,146L119,155L110,155ZM155,146L164,146L164,155L155,155ZM182,146L200,146L200,155L182,155ZM227,146L263,146L263,155L227,155ZM299,146L308,146L308,155L299,155ZM11,155L38,155L38,164L11,164ZM65,155L83,155L83,164L65,164ZM92,155L101,155L101,164L92,164ZM110,155L128,155L128,164L110,164ZM137,155L146,155L146,164L137,164ZM191,155L227,155L227,164L191,164ZM245,155L254,155L254,164L245,164ZM272,155L308,155L308,164L272,164ZM11,164L29,164L29,173L11,173ZM38,164L65,164L65,173L38,173ZM83,164L92,164L92,173L83,173ZM101,164L110,164L110,173L101,173ZM119,164L137,164L137,173L119,173ZM146,164L155,164L155,173L146,173ZM173,164L191,164L191,173L173,173ZM236,164L245,164L245,173L236,173ZM263,164L272,164L272,173L263,173ZM290,164L299,164L299,173L290,173ZM11,173L20,173L20,182L11,182ZM29,173L38,173L38,182L29,182ZM65,173L74,173L74,182L65,182ZM119,173L128,173L128,182L119,182ZM137,173L146,173L146,182L137,182ZM164,173L173,173L173,182L164,182ZM209,173L227,173L227,182L209,182ZM263,173L272,173L272,182L263,182ZM290,173L299,173L299,182L290,182ZM29,182L47,182L47,191L29,191ZM56,182L65,182L65,191L56,191ZM101,182L110,182L110,191L101,191ZM119,182L128,182L128,191L119,191ZM146,182L209,182L209,191L146,191ZM272,182L281,182L281,191L272,191ZM299,182L308,182L308,191L299,191ZM20,191L38,191L38,200L20,200ZM65,191L83,191L83,200L65,200ZM101,191L110,191L110,200L101,200ZM164,191L173,191L173,200L164,200ZM182,191L191,191L191,200L182,200ZM200,191L209,191L209,200L200,200ZM227,191L245,191L245,200L227,200ZM254,191L272,191L272,200L254,200ZM11,200L29,200L29,209L11,209ZM38,200L47,200L47,209L38,209ZM56,200L65,200L65,209L56,209ZM137,200L155,200L155,209L137,209ZM191,200L209,200L209,209L191,209ZM263,200L272,200L272,209L263,209ZM281,200L308,200L308,209L281,209ZM29,209L74,209L74,218L29,218ZM101,209L110,209L110,218L101,218ZM128,209L137,209L137,218L128,218ZM146,209L155,209L155,218L146,218ZM173,209L182,209L182,218L173,218ZM200,209L209,209L209,218L200,218ZM218,209L236,209L236,218L218,218ZM245,209L254,209L254,218L245,218ZM263,209L272,209L272,218L263,218ZM281,209L308,209L308,218L281,218ZM20,218L56,218L56,227L20,227ZM92,218L137,218L137,227L92,227ZM191,218L209,218L209,227L191,227ZM218,218L227,218L227,227L218,227ZM245,218L254,218L254,227L245,227ZM263,218L272,218L272,227L263,227ZM290,218L299,218L299,227L290,227ZM11,227L20,227L20,236L11,236ZM29,227L38,227L38,236L29,236ZM47,227L74,227L74,236L47,236ZM92,227L110,227L110,236L92,236ZM128,227L137,227L137,236L128,236ZM146,227L155,227L155,236L146,236ZM173,227L182,227L182,236L173,236ZM191,227L200,227L200,236L191,236ZM227,227L272,227L272,236L227,236ZM290,227L299,227L299,236L290,236ZM83,236L101,236L101,245L83,245ZM110,236L128,236L128,245L110,245ZM164,236L200,236L200,245L164,245ZM218,236L236,236L236,245L218,245ZM263,236L281,236L281,245L263,245ZM299,236L308,236L308,245L299,245ZM11,245L74,245L74,254L11,254ZM101,245L110,245L110,254L101,254ZM119,245L128,245L128,254L119,254ZM137,245L146,245L146,254L137,254ZM155,245L236,245L236,254L155,254ZM245,245L254,245L254,254L245,254ZM263,245L290,245L290,254L263,254ZM11,254L20,254L20,263L11,263ZM65,254L74,254L74,263L65,263ZM92,254L119,254L119,263L92,263ZM128,254L137,254L137,263L128,263ZM173,254L209,254L209,263L173,263ZM227,254L236,254L236,263L227,263ZM263,254L272,254L272,263L263,263ZM281,254L290,254L290,263L281,263ZM299,254L308,254L308,263L299,263ZM11,263L20,263L20,272L11,272ZM29,263L56,263L56,272L29,272ZM65,263L74,263L74,272L65,272ZM101,263L119,263L119,272L101,272ZM137,263L146,263L146,272L137,272ZM173,263L182,263L182,272L173,272ZM227,263L281,263L281,272L227,272ZM11,272L20,272L20,281L11,281ZM29,272L56,272L56,281L29,281ZM65,272L74,272L74,281L65,281ZM83,272L92,272L92,281L83,281ZM119,272L137,272L137,281L119,281ZM146,272L164,272L164,281L146,281ZM173,272L200,272L200,281L173,281ZM209,272L245,272L245,281L209,281ZM254,272L272,272L272,281L254,281ZM11,281L20,281L20,290L11,290ZM29,281L56,281L56,290L29,290ZM65,281L74,281L74,290L65,290ZM83,281L101,281L101,290L83,290ZM119,281L146,281L146,290L119,290ZM155,281L173,281L173,290L155,290ZM209,281L218,281L218,290L209,290ZM227,281L245,281L245,290L227,290ZM272,281L281,281L281,290L272,290ZM11,290L20,290L20,299L11,299ZM65,290L74,290L74,299L65,299ZM83,290L92,290L92,299L83,299ZM101,290L110,290L110,299L101,299ZM119,290L128,290L128,299L119,299ZM137,290L155,290L155,299L137,299ZM164,290L173,290L173,299L164,299ZM182,290L191,290L191,299L182,299ZM209,290L236,290L236,299L209,299ZM245,290L281,290L281,299L245,299ZM290,290L299,290L299,299L290,299ZM11,299L74,299L74,308L11,308ZM83,299L110,299L110,308L83,308ZM119,299L146,299L146,308L119,308ZM173,299L191,299L191,308L173,308ZM245,299L254,299L254,308L245,308ZM263,299L272,299L272,308L263,308ZM281,299L290,299L290,308L281,308Z"/></svg>
